<svg xmlns="http://www.w3.org/2000/svg" viewBox="0 0 1277.78 1295.18"><g id="Layer_2" data-name="Layer 2"><g id="Layer_1-2" data-name="Layer 1"><path d="M90.41,412c1-24.43,1.73-45.45,2.71-66.47.72-15.24,1.47-30.5,2.73-45.7,1.2-14.32,2.87-28.61,4.75-42.85q3.21-24.23,7.23-48.35c2-12.16,4.55-24.25,7-36.33a146.23,146.23,0,0,1,5-19.81c.67-1.87,4.47-3.74,6.8-3.7,13,.21,26,1.53,39.06,1.44a342.53,342.53,0,0,0,37.32-2.34c13.63-1.58,27.14-4.23,40.69-6.44,10.66-1.72,21.39-3.08,31.93-5.33,12-2.56,23.8-5.93,35.7-8.92,10.22-2.57,20.51-4.93,30.67-7.72,9.56-2.63,19-5.61,28.49-8.58,8.26-2.58,16.48-5.3,24.69-8.06,12.8-4.3,25.65-8.5,38.36-13.07q21.27-7.64,42.32-15.89c12.37-4.86,24.62-10,36.83-15.29,15.57-6.69,31.16-13.36,46.54-20.45,21.08-9.73,42-19.8,62.92-29.84,5-2.4,9.71-5.39,14.68-7.83A5.87,5.87,0,0,1,641.4.42c26.82,13.08,53.35,26.75,80.42,39.3C743,49.53,764.75,58.1,786.34,67c17.44,7.19,34.88,14.42,52.57,20.94,17.07,6.28,34.45,11.74,51.73,17.42,14.35,4.73,28.66,9.61,43.18,13.76C947.26,123,961,126,974.55,129.31c12.69,3.09,25.34,6.44,38.14,9,11.15,2.25,22.45,3.9,33.75,5.22,16.86,2,33.75,3.83,50.68,5,16.18,1.1,32.41,1.26,48.63,1.74a10.59,10.59,0,0,0,3.38-.92c6.25-2.1,8.77-.15,10,6.37,1.76,9,4.25,17.86,6.3,26.81,1.09,4.79,2.11,9.6,2.85,14.45,1.84,12,3.46,24.07,5.24,36.1,2.18,14.79,4.44,29.56,6.65,44.34.09.59.09,1.19.14,1.8,1,15,2.19,30,3,45,1,19.62,1.66,39.26,2.47,58.89.57,13.85,1.75,27.71,1.58,41.54-.23,19.46-1.33,38.91-2.31,58.35-.51,10.26-1.37,20.52-2.39,30.74-1.41,14.14-2.88,28.28-4.77,42.35q-3.18,23.7-7.2,47.25c-2,12.16-4.37,24.29-7.15,36.3-3.46,15-7.48,29.83-11.33,44.72-3.32,12.82-6.26,25.77-10.21,38.39-4.87,15.6-10.41,31-16,46.34-5.5,15.06-10.73,30.28-17.36,44.86-11.86,26-24.08,52-37.3,77.33-10.7,20.55-22.62,40.51-34.91,60.16-9.6,15.38-20.16,30.22-31.1,44.69q-20.71,27.36-42.78,53.68a774.85,774.85,0,0,1-83.43,84.87c-26.63,23.27-54,45.84-82.63,66.6S738,1240.65,707.9,1259c-21.39,13-44,24-66.16,35.78a6.46,6.46,0,0,1-5.24-.26c-22.63-12.19-45.6-23.84-67.63-37.07-26.74-16.06-53.25-32.66-78.79-50.55-24.32-17-47.63-35.58-70.67-54.33-14.87-12.09-28.8-25.39-42.55-38.78-17.05-16.61-34.47-33-49.92-51-22.62-26.4-44.7-53.4-65-81.58-24-33.25-45.6-68.25-63.43-105.31-11.8-24.53-23.1-49.35-33.7-74.42-8.51-20.12-16.12-40.65-23.21-61.3-5-14.69-8.62-29.87-12.73-44.85-3.88-14.11-7.86-28.19-11.29-42.4-2.25-9.31-3.53-18.85-5.38-28.24-2.13-10.76-4.51-21.47-6.59-32.24-1.08-5.6-1.87-11.26-2.59-16.93-1-8-1.74-16.1-2.75-24.12-1.39-11.11-2.93-22.2-4.39-33.29-.08-.6-.06-1.19-.09-1.8-1-23-1.94-46-3.08-69.05C92,434.34,91,421.51,90.41,412Z" style="fill:#7e1518;fill-rule:evenodd"/><path d="M143,434.6c.89-22.1,1.56-41.11,2.45-60.11.65-13.78,1.32-27.58,2.47-41.33,1.08-12.94,2.59-25.86,4.3-38.74q2.9-21.9,6.53-43.72c1.83-11,4.11-21.92,6.37-32.85a132.56,132.56,0,0,1,4.55-17.9c.6-1.69,4-3.38,6.15-3.35,11.78.19,23.55,1.38,35.31,1.3a309.47,309.47,0,0,0,33.75-2.11c12.33-1.44,24.54-3.83,36.79-5.82,9.63-1.57,19.33-2.8,28.87-4.83,10.84-2.31,21.53-5.36,32.28-8.07,9.24-2.31,18.54-4.46,27.73-7,8.65-2.37,17.2-5.07,25.76-7.75,7.47-2.34,14.91-4.8,22.32-7.29,11.58-3.88,23.19-7.69,34.69-11.82q19.23-6.91,38.26-14.37c11.19-4.39,22.27-9.07,33.31-13.81C538.94,109,553,103,566.93,96.54c19.06-8.79,38-17.89,56.9-27,4.51-2.17,8.77-4.87,13.27-7.08a5.29,5.29,0,0,1,4.06-.05C665.41,74.25,689.4,86.62,713.86,98c19.15,8.88,38.83,16.63,58.35,24.68,15.77,6.5,31.54,13,47.53,18.93,15.44,5.68,31.15,10.62,46.78,15.75,13,4.27,25.91,8.68,39,12.44,12.16,3.49,24.54,6.21,36.83,9.21,11.48,2.8,22.92,5.83,34.49,8.16,10.08,2,20.29,3.51,30.51,4.71,15.24,1.78,30.52,3.47,45.82,4.5,14.63,1,29.31,1.14,44,1.58a9.71,9.71,0,0,0,3.07-.84c5.64-1.9,7.92-.14,9.07,5.77,1.58,8.13,3.83,16.15,5.69,24.24,1,4.32,1.91,8.68,2.58,13.06,1.66,10.87,3.13,21.77,4.74,32.65,2,13.37,4,26.72,6,40.08.08.54.09,1.08.13,1.63.9,13.57,2,27.13,2.68,40.71.9,17.75,1.5,35.51,2.23,53.25.52,12.53,1.59,25,1.44,37.57-.21,17.59-1.21,35.18-2.09,52.75-.47,9.27-1.25,18.55-2.17,27.8-1.28,12.78-2.6,25.56-4.31,38.29q-2.87,21.42-6.51,42.72c-1.86,11-4,22-6.46,32.83-3.13,13.54-6.77,27-10.25,40.42-3,11.6-5.66,23.3-9.23,34.71-4.4,14.11-9.41,28-14.49,41.91-5,13.61-9.7,27.38-15.69,40.55-10.73,23.55-21.78,47-33.73,69.93-9.68,18.57-20.45,36.62-31.56,54.39-8.69,13.91-18.23,27.32-28.13,40.4q-18.72,24.75-38.67,48.54A699.16,699.16,0,0,1,856.07,1088c-24.07,21-48.85,41.46-74.71,60.22s-52.87,35.57-80.07,52.14c-19.34,11.77-39.79,21.73-59.82,32.35a5.91,5.91,0,0,1-4.74-.23c-20.46-11-41.23-21.57-61.15-33.52-24.18-14.53-48.15-29.54-71.24-45.72-22-15.4-43.07-32.16-63.9-49.12-13.44-10.93-26-23-38.47-35.06-15.42-15-31.17-29.85-45.14-46.16-20.45-23.87-40.42-48.28-58.8-73.76-21.7-30.06-41.22-61.71-57.35-95.21q-16-33.29-30.47-67.31c-7.69-18.18-14.57-36.74-21-55.42-4.56-13.27-7.8-27-11.52-40.55-3.5-12.76-7.1-25.49-10.21-38.34-2-8.41-3.18-17-4.86-25.53-1.92-9.73-4.08-19.4-6-29.15-1-5.06-1.69-10.18-2.34-15.3-.91-7.27-1.57-14.56-2.48-21.82-1.26-10-2.65-20.06-4-30.1-.07-.53,0-1.08-.07-1.62-.92-20.81-1.76-41.62-2.79-62.43C144.44,454.77,143.53,443.18,143,434.6Z" style="fill:#fff;fill-rule:evenodd"/><path d="M198.15,458.66c.79-19.64,1.39-36.53,2.18-53.42.58-12.25,1.17-24.5,2.19-36.72,1-11.51,2.31-23,3.82-34.44q2.58-19.45,5.81-38.85c1.63-9.77,3.65-19.48,5.66-29.19a118.94,118.94,0,0,1,4-15.92c.54-1.5,3.6-3,5.47-3,10.47.17,20.93,1.23,31.38,1.16a273.45,273.45,0,0,0,30-1.88c10.95-1.27,21.8-3.4,32.7-5.16,8.56-1.4,17.18-2.49,25.65-4.3,9.63-2.05,19.13-4.76,28.69-7.16,8.21-2.07,16.48-4,24.64-6.2,7.68-2.12,15.29-4.52,22.9-6.9,6.64-2.08,13.24-4.27,19.84-6.48,10.29-3.45,20.6-6.83,30.82-10.5Q491,193.58,508,187c9.94-3.91,19.78-8.06,29.6-12.28,12.51-5.38,25-10.74,37.39-16.44,16.94-7.82,33.75-15.91,50.56-24,4-1.92,7.8-4.33,11.8-6.29a4.64,4.64,0,0,1,3.6,0c21.55,10.5,42.88,21.48,64.63,31.57,17,7.89,34.49,14.77,51.85,21.93,14,5.77,28,11.58,42.24,16.81,13.71,5.05,27.68,9.44,41.57,14,11.53,3.8,23,7.72,34.69,11.06,10.81,3.09,21.8,5.52,32.73,8.18,10.21,2.49,20.37,5.18,30.65,7.25,9,1.8,18,3.12,27.12,4.19,13.55,1.58,27.12,3.08,40.72,4,13,.89,26.06,1,39.09,1.4a8.34,8.34,0,0,0,2.71-.75c5-1.68,7-.11,8.07,5.13,1.41,7.23,3.41,14.35,5,21.55.88,3.84,1.7,7.71,2.3,11.6,1.47,9.66,2.78,19.35,4.21,29,1.75,11.88,3.56,23.75,5.34,35.62a13.74,13.74,0,0,1,.1,1.44c.81,12.06,1.78,24.12,2.39,36.19.8,15.78,1.33,31.55,2,47.33.46,11.13,1.41,22.26,1.28,33.38-.19,15.63-1.08,31.26-1.86,46.88-.41,8.24-1.11,16.49-1.93,24.71-1.13,11.35-2.3,22.72-3.83,34q-2.55,19-5.78,38c-1.65,9.77-3.51,19.51-5.74,29.16-2.79,12-6,24-9.11,35.94-2.66,10.31-5,20.7-8.2,30.85-3.92,12.53-8.37,24.91-12.88,37.24-4.42,12.1-8.62,24.34-13.95,36-9.53,20.93-19.35,41.75-30,62.15-8.61,16.5-18.18,32.54-28,48.34-7.72,12.35-16.21,24.28-25,35.91Q916.69,950,899,971.18a622.18,622.18,0,0,1-67,68.2c-21.4,18.7-43.42,36.84-66.4,53.52s-47,31.62-71.16,46.33c-17.19,10.47-35.37,19.32-53.17,28.76a5.25,5.25,0,0,1-4.21-.21c-18.19-9.8-36.65-19.16-54.34-29.79-21.5-12.91-42.79-26.25-63.32-40.62-19.54-13.69-38.27-28.6-56.79-43.66-11.94-9.71-23.14-20.41-34.18-31.16-13.71-13.35-27.71-26.53-40.13-41C370,960.31,352.29,938.61,336,916c-19.29-26.72-36.64-54.84-51-84.62q-14.24-29.57-27.08-59.81c-6.83-16.16-13-32.65-18.65-49.26-4-11.79-6.93-24-10.23-36-3.11-11.33-6.32-22.65-9.08-34.07-1.8-7.48-2.83-15.13-4.32-22.69-1.71-8.65-3.62-17.25-5.29-25.9-.87-4.5-1.51-9.06-2.08-13.61-.81-6.45-1.4-12.93-2.21-19.38-1.12-8.93-2.35-17.84-3.53-26.76-.06-.47-.05-1-.07-1.44-.82-18.49-1.56-37-2.48-55.48C199.45,476.59,198.65,466.29,198.15,458.66Z" style="fill:#7e1518;fill-rule:evenodd"/><path d="M22.65,1017.19c4.67,2.17,9.38,4.3,14,6.54,11.29,5.43,22.45,11.15,33.88,16.24,4.65,2.07,9.9,2.78,14.85,4.17,7.15,2,14.48,2.14,21.82,2.67a124.53,124.53,0,0,0,20-.64c7.28-.65,14.47-2.62,21.59-4.42,9-2.3,18-4.89,26.88-7.57,8.6-2.58,17.11-5.51,25.7-8.14,6.06-1.86,12.21-3.4,18.28-5.23s12-3.94,18-5.77,12.2-3.41,18.28-5.21c4.64-1.37,9.22-2.93,13.85-4.35s9.33-2.74,14-4.15c4.82-1.47,9.61-3,14.43-4.47,4.55-1.39,9.12-2.68,13.67-4.06,4.91-1.48,9.78-3,14.69-4.5,4.74-1.41,9.51-2.7,14.26-4.09s9.48-2.81,14.21-4.22,9.45-2.89,14.19-4.27q8-2.34,16-4.56c3.63-1,7.3-1.84,11-2.81,4.12-1.09,8.21-2.31,12.34-3.33s8.16-1.82,12.23-2.81c4.45-1.07,8.85-2.31,13.31-3.36,4.17-1,8.39-1.77,12.57-2.69,5.15-1.13,10.28-2.32,15.43-3.44q3.51-.78,7.07-1.38,11.52-2,23.05-3.88c7.19-1.2,14.36-2.49,21.56-3.6,8.6-1.31,17.22-2.52,25.84-3.69,6.68-.9,13.37-1.68,20.06-2.44,7.59-.88,15.19-1.61,22.78-2.5,6.29-.73,12.56-1.81,18.87-2.35,7-.61,14.1-1,21.16-1.08,13.32-.17,26.66.05,40-.09a106.83,106.83,0,0,1,21.85,2.18,114.46,114.46,0,0,0,11.41,1.31c6.23.55,12.49.91,18.71,1.54,7,.7,14,1.57,21,2.47,5.66.72,11.33,1.49,17,2.4,6.43,1,12.81,2.3,19.23,3.35,5.95,1,11.94,1.69,17.87,2.74,5.39.95,10.73,2.21,16.1,3.31,2.45.51,4.92.92,7.37,1.43,5.45,1.15,10.89,2.35,16.35,3.48,4.6,1,9.23,1.71,13.81,2.74,4.17.92,8.28,2.11,12.44,3.13s8.36,1.89,12.53,2.93c3.95,1,7.86,2.09,11.79,3.13,3.74,1,7.5,1.91,11.23,3,5.13,1.45,10.23,3,15.36,4.48,4.76,1.37,9.55,2.69,14.32,4.07s9.54,2.74,14.29,4.16,9.48,2.91,14.21,4.37c4.91,1.52,9.81,3.08,14.73,4.55,4.66,1.39,9.37,2.65,14,4s9.47,2.94,14.2,4.37,9.33,2.77,14,4.15c4.84,1.44,9.68,2.86,14.51,4.31s9.45,2.83,14.17,4.28c6,1.87,12,3.8,18.07,5.65,4.56,1.4,9.15,2.69,13.72,4.07,4.92,1.5,9.81,3.07,14.74,4.56,4.55,1.36,9.13,2.62,13.68,4,4.81,1.45,9.6,3,14.42,4.42s9.7,2.8,14.57,4.18c4,1.13,8,2.3,12,3.34a55.32,55.32,0,0,0,7.08,1.38c4.91.57,9.84,1,14.76,1.46,2.59.26,5.19,1,7.74.83,6.48-.44,13-1.13,19.41-2,4.23-.58,8.41-1.64,12.61-2.51,8.38-1.75,16.08-5.32,23.72-9,9.1-4.39,18.17-8.86,27.25-13.32a12,12,0,0,0,1.6-1.22c1.72,2.88,3.37,5.7,5.08,8.48,3.56,5.75,4.33,12.21,5.14,18.74s2.17,12.83,3.27,19.24c.49,3,1,5.92,1.37,8.89.53,4.1.81,8.23,1.46,12.31,1,6.31,2.26,12.57,3.36,18.85.49,2.77.88,5.57,1.25,8.36.52,4,.85,8,1.5,12,1,6.23,2.33,12.4,3.34,18.63a95.44,95.44,0,0,1,1.44,12.24c.25,7.93.43,15.89.06,23.8-.23,4.94-3.8,8.58-6.88,12.1a40.69,40.69,0,0,1-23.1,13.54,189,189,0,0,1-22.21,3.54c-10.67.8-21.41,1.07-32.11,1-5.67,0-11.34-1.25-17-1.95-3.81-.47-7.63-.82-11.39-1.48-5.89-1-11.75-2.25-17.61-3.4-2.36-.46-4.72-.91-7.07-1.4-7.51-1.58-15-3.21-22.51-4.75-4.7-.95-9.45-1.69-14.14-2.69s-9.08-2.18-13.63-3.23c-2.43-.57-4.89-1-7.33-1.56-7-1.56-14-3.18-21-4.7-4.38-1-8.82-1.72-13.19-2.7s-8.85-2.24-13.29-3.29c-4.18-1-8.39-1.8-12.56-2.78-4.64-1.09-9.25-2.31-13.88-3.39-4.18-1-8.4-1.78-12.58-2.78s-8-2.14-12.07-3.16-7.93-1.89-11.88-2.89c-4.23-1.06-8.43-2.21-12.66-3.28-3.75-1-7.53-1.84-11.29-2.81-5.66-1.47-11.31-3-17-4.48-3.75-1-7.54-1.84-11.29-2.83-5.65-1.5-11.29-3.08-17-4.56-3.75-1-7.55-1.81-11.31-2.79-4.13-1.07-8.22-2.27-12.36-3.33-3.85-1-7.74-1.82-11.6-2.81-4-1-8-2.22-12-3.27-3.75-1-7.53-1.84-11.29-2.79-4.32-1.1-8.62-2.29-12.95-3.36-3.86-1-7.75-1.8-11.62-2.74-4.44-1.08-8.85-2.27-13.29-3.33-4.08-1-8.19-1.82-12.27-2.77-4.85-1.12-9.66-2.34-14.51-3.43-4.38-1-8.81-1.79-13.19-2.72-5-1.06-9.91-2.18-14.86-3.26-2.44-.53-4.88-1.09-7.35-1.52q-11.4-2-22.82-3.88c-4.94-.83-9.86-1.72-14.82-2.41-6.65-.93-13.31-1.88-20-2.47q-16.58-1.44-33.19-2.42c-8.16-.49-16.33-.91-24.5-.85s-16.18.58-24.24,1.2c-7.23.55-14.46,1.29-21.62,2.37-8.4,1.26-16.72,3-25.09,4.5-5.41.95-10.87,1.69-16.27,2.72-5,1-9.94,2.17-14.91,3.25-2.35.52-4.71,1-7.06,1.49-7.39,1.59-14.79,3.22-22.18,4.78-4.4.93-8.83,1.68-13.21,2.68-6.1,1.41-12.15,3-18.24,4.48-4.18,1-8.4,1.79-12.58,2.8s-8.63,2.27-13,3.34c-3.86,1-7.76,1.79-11.62,2.75-4.23,1.06-8.42,2.24-12.65,3.3-3.95,1-7.95,1.83-11.9,2.84-5.58,1.43-11.12,3-16.68,4.45-3.76,1-7.55,1.84-11.31,2.82-5.56,1.45-11.11,3-16.67,4.43-3.76,1-7.53,1.91-11.28,2.91-5.56,1.48-11.1,3-16.66,4.5-3.76,1-7.55,1.86-11.3,2.86-5.46,1.46-10.9,3-16.37,4.49-3.84,1-7.72,1.86-11.56,2.85s-7.67,2.11-11.5,3.14c-3.64,1-7.3,1.92-10.94,2.88-4.32,1.13-8.63,2.29-13,3.39-3.66.94-7.34,1.81-11,2.72-4.62,1.14-9.23,2.35-13.87,3.44-4.18,1-8.4,1.78-12.58,2.75-4.46,1-8.89,2.2-13.34,3.26-2.33.56-4.68,1-7,1.54L184,1195.17c-2.24.5-4.48,1-6.74,1.41-7.47,1.33-14.94,2.61-22.42,3.91q-10.78,1.86-21.57,3.69-7.23,1.21-14.48,2.36-11,1.71-21.93,3.37a4.34,4.34,0,0,1-.61.06c-12.25.41-24.51,1.16-36.76,1.09a104.91,104.91,0,0,1-20-2.36c-9.7-1.94-19.31-4.35-27.26-10.87a32.85,32.85,0,0,1-9.75-14C-.18,1177-.31,1170,.31,1163c.58-6.64,2.1-13.2,3.18-19.8.5-3.06,1-6.13,1.37-9.21.93-7.08,1.74-14.18,2.72-21.26,1.18-8.53,2.47-17,3.72-25.57.78-5.26,1.55-10.52,2.36-15.77q1.83-11.88,3.71-23.73,1.78-11.28,3.68-22.52C21.48,1022.55,22.07,1020,22.65,1017.19Zm1213.33,39a6.64,6.64,0,0,0-1.85.28,111.42,111.42,0,0,1-32.51,12.14c-8.92,1.72-17.86,3.77-26.88,4.32-9.24.55-18.58-.56-27.88-.94a9.61,9.61,0,0,1-1.51-.2c-5.38-1.09-10.77-2.1-16.12-3.31s-10.85-2.5-16.2-4c-6.28-1.77-12.48-3.83-18.71-5.77-4.63-1.44-9.26-2.9-13.89-4.32s-9.32-2.81-14-4.18-9.52-2.7-14.26-4.13-9.63-3-14.45-4.46c-4.66-1.41-9.34-2.73-14-4.14-6.06-1.83-12.11-3.73-18.17-5.6-4.81-1.49-9.61-3-14.44-4.47-4.64-1.39-9.31-2.72-14-4.09s-9.5-2.75-14.24-4.18-9.44-3-14.18-4.37-9.35-2.61-14-4c-4.92-1.47-9.8-3.06-14.71-4.55-4.64-1.42-9.3-2.78-14-4.15-5-1.48-10.07-3-15.13-4.4s-10.17-2.72-15.26-4.06c-5.77-1.52-11.53-3.07-17.31-4.52-3.86-1-7.76-1.81-11.63-2.72C842,985.2,837.27,984,832.51,983c-4.39-1-8.81-1.76-13.2-2.72-4.77-1-9.5-2.33-14.29-3.26-5.3-1-10.67-1.74-16-2.7-8.16-1.5-16.27-3.27-24.46-4.6-6.94-1.13-14-1.82-20.94-2.72l-9.54-1.29c-8.17-1.13-16.32-2.41-24.51-3.36-6.11-.71-12.27-1-18.4-1.51-3.61-.33-7.19-.84-10.79-1.26-5.88-.7-11.75-1.6-17.64-2-4.66-.33-9.36-.16-14,0-17.69.44-35.44-1.33-53,2.14-6.4,1.25-13,1.67-19.48,2.41-7.59.87-15.2,1.63-22.79,2.53-6.28.74-12.57,1.55-18.83,2.45-8.16,1.17-16.3,2.42-24.45,3.68s-16.26,2.56-24.39,3.86c-2.48.41-4.94.89-7.41,1.39-5.48,1.12-10.94,2.27-16.4,3.41-4.41.93-8.82,1.81-13.21,2.81-4.56,1-9.09,2.2-13.64,3.26-4.08,1-8.19,1.75-12.25,2.74-4.35,1.06-8.65,2.28-13,3.4-3.65,1-7.34,1.77-11,2.76-5.35,1.46-10.66,3-16,4.54-4.88,1.37-9.79,2.63-14.65,4.08-6.07,1.81-12.08,3.82-18.15,5.65-4.84,1.45-9.76,2.69-14.62,4.13-6.16,1.84-12.28,3.81-18.43,5.68-4.55,1.38-9.15,2.62-13.7,4-5.94,1.83-11.82,3.85-17.76,5.65-4.84,1.46-9.77,2.6-14.61,4.08-7.28,2.22-14.5,4.69-21.8,6.89-6.17,1.86-12.43,3.41-18.6,5.28-7.28,2.21-14.47,4.73-21.75,6.94s-14.89,4.19-22.29,6.43-14.83,4.92-22.34,7-14.9,3.74-22.43,5.14-15.25,2.86-22.93,3.14c-8.86.34-17.77-.58-26.66-1a5.73,5.73,0,0,1-.91-.14c-5.38-1.13-10.81-2.09-16.13-3.45A131.46,131.46,0,0,1,61.26,1064c-6.15-2.33-12.16-5-18.74-7.77-.3,1.56-.66,3.08-.88,4.61-.55,3.88-1,7.79-1.55,11.68-1.07,6.93-2.29,13.85-3.34,20.78-.59,3.89-.83,7.84-1.44,11.72-1.05,6.73-2.37,13.42-3.36,20.15-1,7-1.79,14-2.72,21-.39,2.88-1,5.74-1.34,8.62-.73,5.59-1.68,11.16-1.9,16.77-.11,2.81,1.1,5.8,4.23,7,4.41,1.65,8.79,3.83,13.37,4.49,9.18,1.32,18.48,1.88,27.74,2.52,2.45.17,5-.6,7.45-.79,7.87-.57,15.77-.82,23.6-1.7,6.77-.75,13.46-2.24,20.2-3.3,6.06-1,12.14-1.75,18.21-2.67,2.68-.4,5.36-.89,8-1.41,5.59-1.1,11.17-2.26,16.76-3.38,4.81-1,9.64-1.8,14.45-2.81s9.7-2.22,14.56-3.3c4.38-1,8.78-1.84,13.15-2.88,5.91-1.4,11.79-3,17.7-4.37,4.16-1,8.38-1.76,12.54-2.76,4.45-1.07,8.86-2.3,13.29-3.43,3.67-.93,7.36-1.76,11-2.71,5.76-1.51,11.5-3.1,17.26-4.61,3.66-1,7.36-1.81,11-2.78,5.57-1.48,11.11-3.05,16.68-4.54,3.65-1,7.33-1.88,11-2.86,3.92-1,7.82-2.2,11.75-3.23,3.75-1,7.55-1.85,11.31-2.84,4-1.06,8-2.22,12-3.31s7.87-2.14,11.81-3.19c3.65-1,7.3-1.94,11-2.85,4-1,8-1.86,11.92-2.86,4.23-1.06,8.43-2.24,12.66-3.3,3.87-1,7.76-1.88,11.62-2.87,5.79-1.45,11.55-3,17.34-4.43,4-1,8-1.88,11.94-2.85,4.44-1.07,8.86-2.22,13.31-3.28,4.08-1,8.19-1.85,12.28-2.8,4.75-1.1,9.48-2.26,14.23-3.32,4.29-1,8.6-1.85,12.89-2.81,4.66-1,9.29-2.23,14-3.22s9.45-1.73,14.15-2.7c7.13-1.48,14.21-3.17,21.35-4.56,5.61-1.09,11.27-1.86,16.92-2.73,8-1.23,16.06-2.48,24.12-3.59,4.18-.59,8.41-.93,12.62-1.31,7.74-.7,15.47-1.84,23.22-1.91,13.26-.11,26.54.24,39.79.82,10.39.46,20.75,1.45,31.1,2.42,6.31.59,12.59,1.55,18.88,2.41q9.71,1.29,19.39,2.7c2.37.35,4.71.87,7.07,1.34,5.59,1.13,11.17,2.3,16.76,3.42,4.61.93,9.24,1.77,13.84,2.75,5,1.06,9.92,2.25,14.88,3.36,4.2.94,8.41,1.79,12.6,2.75,4.65,1.08,9.27,2.25,13.92,3.35,4,.95,8,1.79,12,2.76,4.35,1.06,8.67,2.25,13,3.32,4,1,8,1.82,12,2.81,5.78,1.46,11.54,3,17.32,4.52,3.76,1,7.57,1.78,11.34,2.75,5.64,1.48,11.26,3.07,16.91,4.56,3.76,1,7.55,1.82,11.31,2.81,5.66,1.48,11.3,3,17,4.54,3.75,1,7.51,1.92,11.26,2.9,5.68,1.47,11.35,3,17,4.44,3.86,1,7.74,1.89,11.59,2.88,5.69,1.46,11.35,3,17,4.43,3.86,1,7.75,1.86,11.62,2.82,4.34,1.07,8.67,2.23,13,3.28,4,1,8,1.79,12,2.72,4.73,1.11,9.45,2.3,14.18,3.43,4.07,1,8.14,1.92,12.2,2.89,4.46,1,8.9,2.16,13.37,3.16s8.82,1.76,13.21,2.75c4.55,1,9.06,2.31,13.62,3.31s9.24,1.77,13.84,2.74c7.21,1.53,14.4,3.14,21.6,4.72,2.44.53,4.89,1,7.32,1.57,4.88,1.07,9.74,2.22,14.62,3.23,4.71,1,9.45,1.75,14.16,2.7,5.37,1.08,10.7,2.39,16.1,3.34,4.06.71,8.18,1,12.28,1.48,7.22.74,14.43,1.75,21.67,2.07,9.88.43,19.7-.67,29.51-2,6.21-.84,12.25-1.8,17.59-5.21,1.77-1.13,3.77-2.26,3.61-4.93-.42-6.65-.5-13.34-1.26-20-.9-7.77-2.38-15.46-3.61-23.19s-2.43-15.45-3.63-23.17-2.46-15.66-3.61-23.49C1238.53,1074.58,1237.3,1065.53,1236,1056.16Z" style="fill:#7e1518;fill-rule:evenodd"/><path d="M1235.89,1056.16c1.32,9.37,2.55,18.42,3.88,27.46,1.15,7.83,2.4,15.66,3.61,23.49s2.41,15.45,3.64,23.17,2.7,15.42,3.61,23.19c.75,6.61.84,13.3,1.25,20,.17,2.67-1.84,3.8-3.6,4.93-5.35,3.41-11.39,4.37-17.6,5.21-9.81,1.33-19.63,2.43-29.51,2-7.24-.32-14.45-1.33-21.67-2.07-4.1-.43-8.22-.77-12.27-1.48-5.4-1-10.74-2.26-16.11-3.34-4.71-1-9.45-1.73-14.16-2.7-4.88-1-9.74-2.16-14.62-3.23-2.43-.54-4.88-1-7.32-1.57-7.2-1.58-14.38-3.19-21.59-4.72-4.6-1-9.25-1.73-13.84-2.74s-9.07-2.28-13.63-3.31c-4.39-1-8.82-1.78-13.21-2.75s-8.91-2.12-13.36-3.16c-4.07-1-8.14-1.91-12.2-2.89-4.73-1.13-9.46-2.32-14.19-3.43-4-.93-8-1.76-12-2.72-4.35-1-8.68-2.21-13-3.28-3.87-1-7.76-1.84-11.62-2.82-5.69-1.44-11.35-3-17-4.43-3.86-1-7.74-1.89-11.6-2.88-5.68-1.46-11.36-3-17-4.44-3.75-1-7.51-1.91-11.26-2.9-5.66-1.5-11.3-3.06-17-4.54-3.76-1-7.55-1.82-11.3-2.81-5.65-1.49-11.27-3.08-16.92-4.56-3.76-1-7.57-1.8-11.34-2.75-5.78-1.48-11.53-3.06-17.32-4.52-4-1-8-1.83-12-2.81-4.34-1.07-8.66-2.26-13-3.32-4-1-8-1.81-11.95-2.76-4.65-1.1-9.27-2.27-13.92-3.35-4.19-1-8.4-1.81-12.6-2.75-5-1.11-9.9-2.3-14.87-3.36-4.6-1-9.24-1.82-13.85-2.75-5.59-1.12-11.17-2.29-16.76-3.42-2.35-.47-4.7-1-7.07-1.34q-9.67-1.41-19.39-2.7c-6.29-.86-12.56-1.82-18.88-2.41-10.35-1-20.71-2-31.09-2.42-13.26-.58-26.54-.93-39.8-.82-7.74.07-15.48,1.21-23.22,1.91-4.21.38-8.43.72-12.62,1.31-8,1.11-16.09,2.36-24.12,3.59-5.65.87-11.31,1.64-16.92,2.73-7.14,1.39-14.22,3.08-21.34,4.56-4.71,1-9.46,1.71-14.16,2.7s-9.3,2.17-14,3.22c-4.29,1-8.6,1.83-12.89,2.81-4.75,1.06-9.48,2.22-14.23,3.32-4.09,1-8.19,1.83-12.28,2.8-4.44,1.06-8.87,2.21-13.31,3.28-4,1-8,1.86-11.94,2.85-5.79,1.44-11.55,3-17.33,4.43-3.87,1-7.76,1.88-11.63,2.87-4.22,1.06-8.43,2.24-12.66,3.3-4,1-7.95,1.88-11.92,2.86-3.66.91-7.31,1.89-10.95,2.85q-5.92,1.58-11.82,3.19c-4,1.09-8,2.25-12,3.31-3.76,1-7.55,1.85-11.31,2.84-3.93,1-7.83,2.18-11.75,3.23-3.65,1-7.33,1.88-11,2.86-5.56,1.49-11.11,3.06-16.67,4.54-3.66,1-7.35,1.82-11,2.78-5.77,1.51-11.51,3.1-17.27,4.61-3.66,1-7.35,1.78-11,2.71-4.43,1.13-8.83,2.36-13.29,3.43-4.16,1-8.38,1.77-12.54,2.76-5.91,1.4-11.79,3-17.7,4.37-4.37,1-8.77,1.9-13.15,2.88-4.86,1.08-9.69,2.27-14.56,3.3s-9.64,1.86-14.45,2.81c-5.59,1.12-11.16,2.28-16.75,3.38-2.67.52-5.35,1-8,1.41-6.06.92-12.15,1.71-18.21,2.67-6.74,1.06-13.43,2.55-20.2,3.3-7.83.88-15.73,1.13-23.6,1.7-2.49.19-5,1-7.45.79-9.26-.64-18.56-1.2-27.73-2.52-4.58-.66-9-2.84-13.38-4.49-3.13-1.18-4.34-4.17-4.23-7,.23-5.61,1.18-11.18,1.9-16.77.37-2.88.95-5.74,1.34-8.62.93-7,1.69-14,2.72-21,1-6.73,2.32-13.42,3.36-20.15.61-3.88.85-7.83,1.45-11.72,1-6.93,2.26-13.85,3.33-20.78.6-3.89,1-7.8,1.55-11.68.22-1.53.58-3,.89-4.61C49,1059,55,1061.69,61.18,1064A130.56,130.56,0,0,0,75,1068.39c5.32,1.36,10.75,2.32,16.14,3.45a5.66,5.66,0,0,0,.89.14c8.9.37,17.8,1.29,26.67,1,7.68-.28,15.34-1.75,22.93-3.14s15-3.12,22.43-5.14,14.87-4.73,22.34-7,14.89-4.19,22.29-6.43,14.47-4.73,21.75-6.94c6.17-1.87,12.43-3.42,18.6-5.28,7.3-2.2,14.51-4.67,21.81-6.89,4.83-1.48,9.76-2.62,14.6-4.08,6-1.8,11.82-3.82,17.76-5.65,4.55-1.41,9.15-2.65,13.7-4,6.15-1.87,12.28-3.84,18.44-5.68,4.85-1.44,9.76-2.68,14.62-4.13,6.06-1.83,12.07-3.84,18.14-5.65,4.86-1.45,9.77-2.71,14.65-4.08,5.34-1.5,10.65-3.08,16-4.54,3.65-1,7.33-1.81,11-2.76,4.33-1.12,8.64-2.34,13-3.4,4.07-1,8.18-1.79,12.25-2.74,4.56-1.06,9.08-2.23,13.64-3.26,4.39-1,8.8-1.88,13.21-2.81,5.46-1.14,10.93-2.29,16.4-3.41,2.47-.5,4.94-1,7.42-1.39q12.19-1.95,24.39-3.86c8.14-1.26,16.28-2.51,24.45-3.68q9.39-1.35,18.82-2.45c7.6-.9,15.2-1.66,22.8-2.53,6.5-.74,13.07-1.16,19.47-2.41,17.6-3.47,35.36-1.7,53-2.14,4.68-.11,9.38-.28,14,0,5.9.43,11.76,1.33,17.64,2,3.6.42,7.18.93,10.79,1.26,6.13.55,12.29.8,18.41,1.51,8.18,1,16.33,2.23,24.5,3.36l9.54,1.29c7,.9,14,1.59,21,2.72,8.18,1.33,16.29,3.1,24.45,4.6,5.32,1,10.69,1.66,16,2.7,4.8.93,9.52,2.22,14.29,3.26,4.39,1,8.82,1.75,13.2,2.72,4.76,1.06,9.48,2.25,14.22,3.38,3.87.91,7.77,1.74,11.63,2.72,5.79,1.45,11.55,3,17.31,4.52,5.09,1.34,10.19,2.65,15.27,4.06s10.09,2.92,15.12,4.4c4.65,1.37,9.31,2.73,13.95,4.15,4.91,1.49,9.79,3.08,14.71,4.55,4.66,1.38,9.36,2.61,14,4s9.44,2.94,14.18,4.37,9.48,2.79,14.23,4.18,9.33,2.7,14,4.09c4.82,1.46,9.62,3,14.43,4.47,6.06,1.87,12.11,3.77,18.18,5.6,4.65,1.41,9.33,2.73,14,4.14,4.83,1.46,9.62,3,14.45,4.46s9.52,2.74,14.26,4.13,9.33,2.76,14,4.18,9.26,2.88,13.89,4.32c6.23,1.94,12.44,4,18.71,5.77,5.35,1.52,10.77,2.8,16.2,4s10.74,2.22,16.13,3.31a9.45,9.45,0,0,0,1.51.2c9.29.38,18.63,1.49,27.87.94,9-.55,18-2.6,26.88-4.32a111.42,111.42,0,0,0,32.51-12.14A6.64,6.64,0,0,1,1235.89,1056.16Z" style="fill:#fff;fill-rule:evenodd"/><path d="M1082.07,1053a6.48,6.48,0,0,1,.72-1.06c4.22-4.22,8.47-8.43,12.69-12.66q6-6,11.91-12a228.5,228.5,0,0,1,19-17.45c4.45-3.59,9-7.1,13.75-10.27a96.4,96.4,0,0,1,18.84-10c4.25-1.61,8.51-3.2,12.83-4.58,2.65-.85,5.42-1.29,8.14-1.94,2.42-.56,4.83-1.21,7.27-1.7,1.81-.36,3.66-.54,5.49-.74a77.22,77.22,0,0,1,8.27-.75,86.71,86.71,0,0,1,11.16.66c4.39.57,8.8,1.34,12.8,3.43a36.36,36.36,0,0,1,11.77,9.83,62.53,62.53,0,0,1,8.38,13.92c1.57,3.6,3.14,7.22,4.6,10.86,1.36,3.41,2.47,6.86,1.87,10.66a20,20,0,0,1-3,7.58c-3.68,5.8-8.71,10.33-14,14.55a55.49,55.49,0,0,1-14.8,8.28c-3.38,1.31-6.75,2.65-10.19,3.79-2.5.83-5.09,1.37-7.65,2s-5.14,1.23-7.73,1.71c-1.85.34-3.74.48-5.62.69l-7.39.85h-.46c-2.72,0-5.45.13-8.17.06-5.44-.14-10.87-.31-16.31-.6-2.75-.15-5.49-.57-8.23-.91-1.63-.2-3.24-.45-4.86-.73q-4.12-.66-8.27-1.38c-2.07-.37-4.14-.79-6.21-1.24-2.35-.51-4.68-1.09-7-1.64-1-.22-1.95-.45-2.93-.65-2.28-.47-4.58-.87-6.85-1.41-2.84-.66-5.64-1.47-8.48-2.16-2-.5-4.13-.87-6.18-1.37s-4-1.07-6-1.59c-1-.25-2-.46-2.93-.67C1086.23,1054,1084.22,1053.51,1082.07,1053Zm46.66-13.75a5.78,5.78,0,0,0,1.2.72c2.11.45,4.24.88,6.36,1.29,2.34.45,4.68.9,7,1.28,3.43.55,6.86,1.22,10.32,1.48,7.52.57,15,1.44,22.62,1,3-.18,6-.31,8.92-.49a26.41,26.41,0,0,0,2.65-.38c2.2-.41,4.4-.83,6.6-1.29,1.79-.37,3.6-.72,5.36-1.23,2.23-.65,4.48-1.34,6.63-2.2,3.07-1.22,6.14-2.46,9.06-4a35.18,35.18,0,0,0,10.83-8.77,2,2,0,0,0,.38-1.65,55.7,55.7,0,0,0-2.73-6.47c-1.7-3.23-3.48-6.42-5.47-9.47a9.12,9.12,0,0,0-4.68-4,32.4,32.4,0,0,0-7.56-1.33,71.93,71.93,0,0,0-9.16.27,63.39,63.39,0,0,0-7.11,1c-1.91.35-3.78.94-5.66,1.39-2.21.53-4.47.89-6.63,1.57-2.84.88-5.62,2-8.41,3a63.8,63.8,0,0,0-12.16,6,144.86,144.86,0,0,0-12.16,8.38C1139.47,1029.8,1134.26,1034.54,1128.73,1039.28Z" style="fill:#7e1518;fill-rule:evenodd"/><path d="M1128.73,1039.28c5.53-4.74,10.74-9.48,16.23-13.85a144.86,144.86,0,0,1,12.16-8.38,63.8,63.8,0,0,1,12.16-6c2.79-1,5.57-2.12,8.41-3,2.16-.68,4.42-1,6.63-1.57,1.88-.45,3.75-1,5.66-1.39a63.39,63.39,0,0,1,7.11-1,71.93,71.93,0,0,1,9.16-.27,32.4,32.4,0,0,1,7.56,1.33,9.12,9.12,0,0,1,4.68,4c2,3,3.77,6.24,5.47,9.47a55.7,55.7,0,0,1,2.73,6.47,2,2,0,0,1-.38,1.65,35.18,35.18,0,0,1-10.83,8.77c-2.92,1.51-6,2.75-9.06,4-2.15.86-4.4,1.55-6.63,2.2-1.76.51-3.57.86-5.36,1.23-2.2.46-4.4.88-6.6,1.29a26.41,26.41,0,0,1-2.65.38c-3,.18-6,.31-8.92.49-7.57.47-15.1-.4-22.62-1-3.46-.26-6.89-.93-10.32-1.48-2.35-.38-4.69-.83-7-1.28-2.12-.41-4.25-.84-6.36-1.29A5.78,5.78,0,0,1,1128.73,1039.28Z" style="fill:#fff;fill-rule:evenodd"/><path d="M183.79,1054.49c-1,.23-2,.43-2.93.68-2,.52-4,1.11-6,1.59s-4.13.87-6.19,1.37c-2.83.69-5.63,1.5-8.47,2.17-2.27.53-4.57.94-6.85,1.4-1,.2-2,.43-2.93.65-2.34.55-4.67,1.13-7,1.65-2.06.45-4.13.85-6.21,1.23-2.75.49-5.51.94-8.26,1.39-1.62.26-3.23.52-4.86.72-2.74.34-5.48.76-8.24.9-5.43.3-10.87.48-16.3.62-2.72.07-5.45,0-8.17-.08a3.3,3.3,0,0,1-.45,0l-7.41-.83c-1.87-.22-3.76-.35-5.61-.69-2.59-.49-5.16-1.1-7.73-1.71s-5.15-1.17-7.65-2c-3.44-1.14-6.82-2.49-10.2-3.8a55.87,55.87,0,0,1-14.79-8.28c-5.3-4.22-10.33-8.76-14-14.55a19.8,19.8,0,0,1-3-7.58c-.61-3.8.5-7.25,1.87-10.66,1.46-3.65,3-7.26,4.6-10.86a63.1,63.1,0,0,1,8.37-13.92,36.78,36.78,0,0,1,11.78-9.84c4-2.07,8.41-2.84,12.8-3.42A86.71,86.71,0,0,1,71.09,980a77.25,77.25,0,0,1,8.27.76c1.83.19,3.68.37,5.49.73,2.44.49,4.85,1.15,7.28,1.71,2.7.64,5.48,1.08,8.13,1.93,4.32,1.39,8.58,3,12.82,4.58a95.7,95.7,0,0,1,18.85,10c4.75,3.16,9.3,6.67,13.75,10.26a226.78,226.78,0,0,1,19,17.45c4,4,7.93,8,11.9,12q6.36,6.34,12.7,12.67a7,7,0,0,1,.72,1Zm-56.72-29a141.23,141.23,0,0,0-12.17-8.39,63.42,63.42,0,0,0-12.15-6c-2.79-1-5.57-2.12-8.41-3-2.16-.67-4.42-1-6.63-1.56-1.89-.46-3.76-1-5.66-1.4a66,66,0,0,0-7.12-1,71.72,71.72,0,0,0-9.15-.27,32.93,32.93,0,0,0-7.56,1.33,9.08,9.08,0,0,0-4.68,4c-2,3.05-3.78,6.25-5.47,9.47a55.85,55.85,0,0,0-2.73,6.48,2,2,0,0,0,.38,1.64,35.14,35.14,0,0,0,10.82,8.77c2.93,1.51,6,2.75,9.07,4,2.16.86,4.4,1.56,6.64,2.21,1.75.5,3.56.84,5.35,1.22q3.3.69,6.6,1.29a19.87,19.87,0,0,0,2.65.37c3,.2,5.94.32,8.92.5,7.57.47,15.1-.41,22.62-1,3.46-.26,6.89-.93,10.32-1.47,2.35-.38,4.69-.84,7-1.29,2.12-.41,4.24-.83,6.35-1.29a5.78,5.78,0,0,0,1.21-.72C137.77,1034.61,132.56,1029.88,127.07,1025.51Z" style="fill:#7e1518;fill-rule:evenodd"/><path d="M143.3,1039.35c-5.53-4.74-10.74-9.47-16.23-13.84a141.23,141.23,0,0,0-12.17-8.39,63.42,63.42,0,0,0-12.15-6c-2.79-1-5.57-2.12-8.41-3-2.16-.67-4.42-1-6.63-1.56-1.89-.46-3.76-1-5.66-1.4a66,66,0,0,0-7.12-1,71.72,71.72,0,0,0-9.15-.27,32.93,32.93,0,0,0-7.56,1.33,9.08,9.08,0,0,0-4.68,4c-2,3.05-3.78,6.25-5.47,9.47a55.85,55.85,0,0,0-2.73,6.48,2,2,0,0,0,.38,1.64,35.14,35.14,0,0,0,10.82,8.77c2.93,1.51,6,2.75,9.07,4,2.16.86,4.4,1.56,6.64,2.21,1.75.5,3.56.84,5.35,1.22q3.3.69,6.6,1.29a19.87,19.87,0,0,0,2.65.37c3,.2,5.94.32,8.92.5,7.57.47,15.1-.41,22.62-1,3.46-.26,6.89-.93,10.32-1.47,2.35-.38,4.69-.84,7-1.29,2.12-.41,4.24-.83,6.35-1.29A5.78,5.78,0,0,0,143.3,1039.35Z" style="fill:#fff;fill-rule:evenodd"/><text transform="translate(81.75 1147.74) rotate(-9.46) scale(1.1 1)" style="font-size:52.1060791015625px;fill:#7e1518;font-family:STIXGeneral-Bold, STIXGeneral;font-weight:700"> </text><text transform="translate(95.94 1145.37) rotate(-10.39) scale(1.1 1)" style="font-size:52.1060791015625px;fill:#7e1518;font-family:STIXGeneral-Bold, STIXGeneral;font-weight:700"> </text><text transform="translate(109.93 1142.81) rotate(-11.09) scale(1.1 1)" style="font-size:52.1060791015625px;fill:#7e1518;font-family:STIXGeneral-Bold, STIXGeneral;font-weight:700"> </text><text transform="matrix(1.08, -0.22, 0.2, 0.98, 123.91, 1140.06)" style="font-size:52.1060791015625px;fill:#7e1518;font-family:STIXGeneral-Bold, STIXGeneral;font-weight:700"> </text><text transform="matrix(1.08, -0.23, 0.21, 0.98, 137.86, 1137.18)" style="font-size:52.1060791015625px;fill:#7e1518;font-family:STIXGeneral-Bold, STIXGeneral;font-weight:700"> </text><text transform="translate(151.78 1134.27) rotate(-12.86) scale(1.1 1)" style="font-size:52.1060791015625px;fill:#7e1518;font-family:STIXGeneral-Bold, STIXGeneral;font-weight:700">V</text><text transform="translate(200.92 1122.94) rotate(-13.79) scale(1.1 1)" style="font-size:52.1060791015625px;fill:#7e1518;font-family:STIXGeneral-Bold, STIXGeneral;font-weight:700">E</text><text transform="translate(246.82 1111.61) rotate(-14.46) scale(1.1 1)" style="font-size:52.1060791015625px;fill:#7e1518;font-family:STIXGeneral-Bold, STIXGeneral;font-weight:700">R</text><text transform="translate(295.71 1098.92) rotate(-14.91) scale(1.1 1)" style="font-size:52.1060791015625px;fill:#7e1518;font-family:STIXGeneral-Bold, STIXGeneral;font-weight:700">I</text><text transform="matrix(1.06, -0.29, 0.26, 0.97, 326.08, 1090.79)" style="font-size:52.1060791015625px;fill:#7e1518;font-family:STIXGeneral-Bold, STIXGeneral;font-weight:700">T</text><text transform="translate(369.58 1079.07) rotate(-14.83) scale(1.1 1)" style="font-size:52.1060791015625px;fill:#7e1518;font-family:STIXGeneral-Bold, STIXGeneral;font-weight:700">A</text><text transform="matrix(1.07, -0.27, 0.25, 0.97, 418.38, 1066.19)" style="font-size:52.1060791015625px;fill:#7e1518;font-family:STIXGeneral-Bold, STIXGeneral;font-weight:700">S</text><text transform="translate(458.04 1056.27) rotate(-13.22) scale(1.1 1)" style="font-size:52.1060791015625px;fill:#7e1518;font-family:STIXGeneral-Bold, STIXGeneral;font-weight:700"> </text><text transform="translate(480.54 1050.81) rotate(-10.96) scale(1.1 1)" style="font-size:52.1060791015625px;fill:#7e1518;font-family:STIXGeneral-Bold, STIXGeneral;font-weight:700">V</text><text transform="matrix(1.09, -0.14, 0.13, 0.99, 529.72, 1041.74)" style="font-size:52.1060791015625px;fill:#7e1518;font-family:STIXGeneral-Bold, STIXGeneral;font-weight:700">E</text><text transform="translate(576.63 1035.98) rotate(-6.47) scale(1.1 1)" style="font-size:52.1060791015625px;fill:#7e1518;font-family:STIXGeneral-Bold, STIXGeneral;font-weight:700">N</text><text transform="translate(625.31 1032.28) rotate(4.41) scale(1.1 1)" style="font-size:52.1060791015625px;fill:#7e1518;font-family:STIXGeneral-Bold, STIXGeneral;font-weight:700">U</text><text transform="translate(675.23 1036.57) rotate(7.39) scale(1.1 1)" style="font-size:52.1060791015625px;fill:#7e1518;font-family:STIXGeneral-Bold, STIXGeneral;font-weight:700">S</text><text transform="matrix(1.09, 0.18, -0.16, 0.99, 714.82, 1041.83)" style="font-size:52.1060791015625px;fill:#7e1518;font-family:STIXGeneral-Bold, STIXGeneral;font-weight:700">T</text><text transform="matrix(1.08, 0.21, -0.19, 0.98, 759.04, 1049.24)" style="font-size:52.1060791015625px;fill:#7e1518;font-family:STIXGeneral-Bold, STIXGeneral;font-weight:700">A</text><text transform="translate(808.4 1059.12) rotate(12.52) scale(1.1 1)" style="font-size:52.1060791015625px;fill:#7e1518;font-family:STIXGeneral-Bold, STIXGeneral;font-weight:700">S</text><text transform="translate(848.28 1068.13) rotate(13.4) scale(1.1 1)" style="font-size:52.1060791015625px;fill:#7e1518;font-family:STIXGeneral-Bold, STIXGeneral;font-weight:700"> </text><text transform="translate(871.01 1073.51) rotate(14.32) scale(1.1 1)" style="font-size:52.1060791015625px;fill:#7e1518;font-family:STIXGeneral-Bold, STIXGeneral;font-weight:700">V</text><text transform="translate(919.86 1086.17) rotate(15.04) scale(1.1 1)" style="font-size:52.1060791015625px;fill:#7e1518;font-family:STIXGeneral-Bold, STIXGeneral;font-weight:700">I</text><text transform="translate(950.12 1094.34) rotate(14.4) scale(1.1 1)" style="font-size:52.1060791015625px;fill:#7e1518;font-family:STIXGeneral-Bold, STIXGeneral;font-weight:700">R</text><text transform="translate(997.72 1106.47) rotate(13.17) scale(1.1 1)" style="font-size:52.1060791015625px;fill:#7e1518;font-family:STIXGeneral-Bold, STIXGeneral;font-weight:700">T</text><text transform="translate(1043.7 1117.13) rotate(11.88) scale(1.1 1)" style="font-size:52.1060791015625px;fill:#7e1518;font-family:STIXGeneral-Bold, STIXGeneral;font-weight:700">U</text><text transform="translate(1093.04 1127.37) rotate(10.82) scale(1.1 1)" style="font-size:52.1060791015625px;fill:#7e1518;font-family:STIXGeneral-Bold, STIXGeneral;font-weight:700">S</text><path d="M628.51,881.81c-3.51-3.23-6.43-6.15-9.59-8.81-17.12-14.38-33.67-29.58-51.66-42.78-14.65-10.74-32.07-16.06-50.54-16.21-6.56,0-6.23-4.1-6.23-8.5q0-46.75,0-93.49,0-42.25,0-84.51c0-8.68,1-9.23,9.51-8.45,34.07,3.1,63.24,17,87.88,40.33a125.55,125.55,0,0,1,17.42,21.32,26.58,26.58,0,0,1,4.11,14c.2,61.32.05,122.65,0,184A17.94,17.94,0,0,1,628.51,881.81Z" style="fill:#fff;fill-rule:evenodd"/><path d="M650.39,881.87c-.45-4.49-.93-7.07-.94-9.66-.09-58.6-.3-117.21,0-175.83a33.88,33.88,0,0,1,5.57-18c22.93-33.17,55.15-51.9,94.71-58,18.65-2.87,17.5-5,17.48,15.65q-.06,83.81-.08,167.6c0,9.92-.08,9.74-9.86,10.47C740,815.36,723.66,820.76,710,831c-17.53,13-33.64,28-50.32,42.14C656.9,875.43,654.41,878.06,650.39,881.87Z" style="fill:#fff;fill-rule:evenodd"/><path d="M620.82,917.42C600.41,897,575,886.57,547.89,879.86c-22.73-5.63-45.76-10-69.47-8.81-9.9.48-10.27-.27-10.31-9.83q-.51-95.7-1-191.4c-.05-10.94,0-10.94,10.5-11,20-.08,20-.08,20,20.18,0,44.62.14,89.25-.09,133.87,0,7,1.46,10.31,9.23,11.94,38.69,8.09,71.63,26.94,98.35,56.07C614.32,890.88,621,902.55,620.82,917.42Z" style="fill:#fff;fill-rule:evenodd"/><path d="M657.08,916.36c2.14-6.76,3.31-13.66,6.38-19.58,12-23.06,32.36-37.46,53.88-50.42,18.52-11.15,38.26-19.35,59.79-22.57,5.8-.86,5.45-4.85,5.46-8.86q.06-29.16,0-58.34,0-44.15,0-88.28c0-9.25.36-9.65,9.82-9.55,22.91.23,19.7-3,19.76,19.86.13,60.1,0,120.2,0,180.3,0,12.09,0,12.23-11.76,12.09-35.9-.42-70.59,5.86-103.18,20.91C683.76,898.18,671.58,907.43,657.08,916.36Z" style="fill:#fff;fill-rule:evenodd"/><path d="M606,923c-1.92.11-3.84.31-5.77.31-53.35,0-106.7,0-160,.23-7.06,0-9.55-2.12-9.57-9.37-.15-64.31-.66-128.61-.85-192.93,0-3.24,1.57-9,3.15-9.29,5.44-.93,11.29-.37,16.78.71,1,.21,1.6,5.32,1.61,8.18.1,48.11,0,96.23.1,144.35.05,21.28-2.79,18.82,18.94,19.88A334.57,334.57,0,0,1,597.26,916.5c3.12,1.47,6,3.32,9.07,5Z" style="fill:#fff;fill-rule:evenodd"/><path d="M675,920.85c8.22-3.84,16.29-8.06,24.7-11.46,35.86-14.54,73-23.21,111.83-24.62,15.9-.57,15.89-.83,15.89-16.59,0-49.36,0-98.72.11-148.08,0-3.16,1.12-8.78,2.52-9.05,5.21-1,10.82-.62,16.12.21,1,.16,1.77,4.79,1.79,7.35.12,20.69,0,41.39,0,62.08,0,44.62-.16,89.24,0,133.86,0,6.18-1.37,9-8.26,8.91-53.35-.25-106.7-.19-160-.22-1.23,0-2.46-.15-3.68-.21C675.61,922.3,675.29,921.58,675,920.85Z" style="fill:#fff;fill-rule:evenodd"/><path d="M664.12,370.08c-1.14,16,3.39,30.83-3.45,45.61C652.09,405.42,653.78,381.64,664.12,370.08Z" style="fill:#fff;fill-rule:evenodd"/><path d="M562.31,505l-36.65-7.77c-.12-.59-.24-1.18-.37-1.77l35.36-7.62c0-.7,0-1.41.05-2.12-12.2-2.11-25.18-2.11-34.42-10.86l40.54-4.36.51-2.7L538.9,444.05c13.1-1.79,23.19,6.36,35.4,8.68q-13.6-14.13-27.21-28.23L549,422c12.37,8.7,26,13.78,41.73,16.86l-15.63-34c13.41,4.27,19.57,16,26.8,26.52l3.19-1.74c-3.66-11.42-7.34-22.83-11.4-35.49L620.89,423l2.22-1c1-11.64,2-23.27,3.1-35.76,9.68,10.12,7.62,23.32,12.2,34.61,3.62-12.53-.66-26.82,8.61-37.08,3.17,12.92,6.48,26.37,9.78,39.82l2.34.12L679,393.63c4,13.59-5.07,24.81-6.62,39,13.89-6.79,17.47-19.16,25.3-29.78-2.77,13.79-5.3,26.35-7.82,38.91.68.51,1.34,1,2,1.55l31.27-19.21c-2.8,14.33-16.35,19.5-20.77,31.25C714,448.08,725,439.87,739.92,439.6c-10.34,11.37-25.78,17.55-32,35.35l40.39-4.26C738.51,482.57,724,483.05,712,488.27l1,3.83h39.26l-.18,1.39-39.49,14.56.33,2.3,31.74,15.39.06,2.23c-5.85,0-11.75.52-17.52-.14-6-.69-11.89-2.51-18.59-2.38,8.17,9.37,21.32,11.39,29.84,20.74l-37.93-3.52L699.24,545l21.63,27.45-1.13,1.72c-12.51-2.53-21.4-11.73-30.79-20-.72.62-1.44,1.24-2.15,1.87l20,32.56-1.06,1-32-23.75-2.62,1.81c2.18,12,4.35,24,6.64,36.69-12.65-7.37-13.89-22.28-22.41-32.51-1.94,13.67,6.2,26.79,1,38.65l-19.16-36.34-2.44.42L623,607.35c-6.9-12-1-23.69-6.48-34.47q-6.87,16.64-13.72,33.28l-2.25-.54V563.75l-26.84,25.34c-2.19-14.9,10.11-22.76,13.83-33.85l-2-1.71-26.06,22.52c-.56-.48-1.11-1-1.66-1.46q8.13-17.08,16.27-34.16l-1.78-2-25.25,7.32-.77-.93q10.63-9.37,21.26-18.76c-.46-.93-.93-1.86-1.4-2.79-13.45,3.2-25.87,12.64-41.61,8.34C538.46,524.54,551.35,517.54,562.31,505Zm146.86-5.22c0-37.32-32.3-68.68-70.65-68.62-38.14,0-70,31.34-70.41,69.09-.38,37,32.22,68.84,70.5,68.85C677.48,569.11,709.2,538,709.17,499.78Z" style="fill:#fff;fill-rule:evenodd"/><path d="M717.81,469.18c7.65-15.6,26.86-26.75,39.71-22.4C744.58,455.51,734.25,466.75,717.81,469.18Z" style="fill:#fff;fill-rule:evenodd"/><path d="M620.28,414.86c-15.79-10.75-21.88-25.51-16.69-42.46C608.05,387.91,621.56,397.48,620.28,414.86Z" style="fill:#fff;fill-rule:evenodd"/><path d="M534.26,574.41c10-11.7,17.82-23.76,32.82-29.51C563.6,561.7,548.87,575.15,534.26,574.41Z" style="fill:#fff;fill-rule:evenodd"/><path d="M549.42,402.73c10.37,13,29.21,12.94,34,30C568.31,432.32,551.32,418.16,549.42,402.73Z" style="fill:#fff;fill-rule:evenodd"/><path d="M636.64,584c10.51,12.33,14,25.62,5.66,40.56C642.26,610.68,629.84,598.81,636.64,584Z" style="fill:#fff;fill-rule:evenodd"/><path d="M560.79,465.81c-19.64,5.45-38.59,2.47-43.72-8.71C531.5,459.68,546.32,456.19,560.79,465.81Z" style="fill:#fff;fill-rule:evenodd"/><path d="M719.45,399.06c-11.06,10.24-8.32,29.26-23.65,37.4C692.57,423.4,704.81,403.82,719.45,399.06Z" style="fill:#fff;fill-rule:evenodd"/><path d="M553.13,507.73c-11.7,12.58-28,18.51-39.46,10.47C526.67,513.09,537.85,504.51,553.13,507.73Z" style="fill:#fff;fill-rule:evenodd"/><path d="M675.66,574.75c15.51,2.42,25.46,15.28,25.6,32.45C694.45,595.54,679.06,590.51,675.66,574.75Z" style="fill:#fff;fill-rule:evenodd"/><path d="M720.92,511.13c13.35-11.33,29.12-12,43.19-2.1C749.33,508.39,736.23,516.35,720.92,511.13Z" style="fill:#fff;fill-rule:evenodd"/><path d="M595.88,573.93c6.64,10.33.93,29.22-11.79,37.82C587.85,598.39,584.43,584.24,595.88,573.93Z" style="fill:#fff;fill-rule:evenodd"/><path d="M741.14,564.5c-11.86-6.56-26.47-3.13-34.31-16.21C720.91,544.28,733.46,549.9,741.14,564.5Z" style="fill:#fff;fill-rule:evenodd"/><path d="M639.27,565.64c-37.52.18-67.6-28.88-67.67-65.37-.08-35.55,30.63-65.64,67-65.69s66.82,29.37,67,64.72C705.85,536.5,676.88,565.46,639.27,565.64Z" style="fill:#fff;fill-rule:evenodd"/><path d="M385.69,334.94c-.3,0-.45-.48-.45-1.36v-10.1c0-.48.15-1.36.74-1.36h6.45V296.89h-6.6c-.23,0-.56-.2-.56-1.22V285.09c0-.68.24-1,.66-1H415c.59,0,.83.68,1.07,1.16l3.3,10.31,2.88-10.45c.24-.55.47-1,.92-1h27.57c.36,0,.5.47.5,1.16V296c0,.68-.21.88-.5.88H444.3v25.23h6.57c.29,0,.59.34.59,1.56v10.24c0,.68-.3,1-.74,1H422.67c-.3,0-.59-.34-.59-1.15V323c0-.54.29-.88.59-.88h6.51V295.87h-.09l-12.24,38.25c-.21.48-.51.82-.89.82h-2.79c-.3,0-.6-.14-.81-1l-11.67-37.37h-.06v25.57h6.42c.35,0,.5.34.5,1.22v10.78a.73.73,0,0,1-.8.82Z" style="fill:#fff"/><path d="M458.43,285.37c0-.89.21-1.3.48-1.3h29a.58.58,0,0,1,.63.62v11.25c0,.68-.21.95-.45.95h-6.74v25.37h6.74c.3,0,.45.27.45.74v10.79c0,.81-.06,1.15-.45,1.15h-29c-.48,0-.63-.48-.63-.95V323.41c0-1,.21-1.29.39-1.29h6.74v-25.3H459a.6.6,0,0,1-.57-.68Z" style="fill:#fff"/><path d="M547.19,333.24c0,1.22-.35,1.7-.65,1.7H496c-.3,0-.6-.48-.6-1.36V323.34c0-.54.18-1.22.78-1.22h6.44V296.89h-6.56c-.36,0-.6-.55-.6-1.22V285.23c0-.69.24-1.16.69-1.16h28.1c.45,0,.8.47.8,1.84v9.63c0,.8-.21,1.35-.59,1.35h-6.71v25.23H535v-7.73c0-.68.14-2,.65-2h10.84c.39,0,.74.55.74,1.9Z" style="fill:#fff"/><path d="M605.89,333.24c0,1.22-.36,1.7-.65,1.7H554.7c-.29,0-.59-.48-.59-1.36V323.34c0-.54.18-1.22.77-1.22h6.45V296.89h-6.56c-.36,0-.6-.55-.6-1.22V285.23c0-.69.24-1.16.68-1.16H583c.44,0,.8.47.8,1.84v9.63c0,.8-.21,1.35-.6,1.35h-6.71v25.23h17.2v-7.73c0-.68.15-2,.65-2h10.85c.38,0,.74.55.74,1.9Z" style="fill:#fff"/><path d="M662.93,284.07c.53,0,.68.47.68,1.5v19.32c0,.68-.09,1.16-.39,1.16H653c-.21,0-.38,0-.38-.48V297H635.44v6.44H645c.3,0,.42.13.42.68v10.64c0,.55-.36.68-.72.68h-9.27v6.85h17.41v-8.27c0-.61.09-1.36.57-1.36h10.87c.21,0,.33.35.33,1.29v20c0,.47-.12.95-.68.95H613.55c-.39,0-.74.07-.74-.75V323.48c0-.61.18-1.16.44-1.16H620V297h-6.78c-.23,0-.41.14-.41-.68V284.69a.66.66,0,0,1,.74-.62Z" style="fill:#fff"/><path d="M698.69,284.07c.29,0,.62.34.92.82l15.27,29.5v-17.5h-6.54c-.45,0-.68-.34-.68-.88V285.57c0-.82.21-1.5.42-1.5h21.21c.53,0,.65,1,.65,1.7v9.9c0,.88-.3,1.22-.69,1.22h-6.32V333.1c0,1.16-.15,1.84-.54,1.84h-18.3a.8.8,0,0,1-.74-.48l-16.72-32.35v20h6.86c.35,0,.74.34.74,1v10.3c0,1-.24,1.5-.59,1.5H672c-.3,0-.44-.48-.44-1.36V323.34c0-.54.14-1.22.74-1.22h6.44V296.89h-6.65c-.21,0-.51-.2-.51-1.22V285.09c0-.68.3-1,.75-1Z" style="fill:#fff"/><path d="M764,284.07c.29,0,.62.34.92.82l15.27,29.5v-17.5h-6.54c-.44,0-.68-.34-.68-.88V285.57c0-.82.21-1.5.42-1.5h21.21c.53,0,.65,1,.65,1.7v9.9c0,.88-.3,1.22-.69,1.22h-6.32V333.1c0,1.16-.15,1.84-.54,1.84h-18.3a.8.8,0,0,1-.74-.48l-16.72-32.35v20h6.86c.35,0,.74.34.74,1v10.3c0,1-.24,1.5-.59,1.5H737.27c-.29,0-.45-.48-.45-1.36V323.34c0-.54.16-1.22.75-1.22H744V296.89h-6.65c-.21,0-.51-.2-.51-1.22V285.09c0-.68.3-1,.75-1Z" style="fill:#fff"/><path d="M802.18,285.37c0-.89.2-1.3.47-1.3h29a.58.58,0,0,1,.63.62v11.25c0,.68-.21.95-.45.95h-6.74v25.37h6.74c.3,0,.45.27.45.74v10.79c0,.81-.06,1.15-.45,1.15h-29c-.48,0-.62-.48-.62-.95V323.41c0-1,.2-1.29.38-1.29h6.75v-25.3h-6.58c-.32,0-.55-.27-.55-.68Z" style="fill:#fff"/><path d="M863.16,334.94c-.45,0-.69-.62-.69-1.29v-9.9c0-.61.18-1,.48-1h5l-1.75-5.83H857l-1.75,5.83h5.55c.33,0,.48.41.48.81v10.11c0,.81-.12,1.29-.42,1.29h-20.2c-.68,0-1.19-.14-1.19-1.09V323.48c0-.75.15-1.16.59-1.16h6.09l11.53-36.82c.3-1,.69-1.43,1-1.43H872.4c.59,0,1,.75,1.1,1.43l12,37.5H892c.5,0,.5,1.22.5,2.24v8.61c0,.81-.3,1.09-.83,1.09Zm-4.25-24.28h5.29l-2.32-8a.24.24,0,0,0-.44,0Z" style="fill:#fff"/></g></g></svg>