<svg xmlns="http://www.w3.org/2000/svg" viewBox="0 0 4783.13 1058.4"><defs><style>.cls-1,.cls-3{fill:#7e1518;}.cls-1,.cls-2{fill-rule:evenodd;}.cls-2,.cls-4{fill:#fff;}</style></defs><g id="Layer_2" data-name="Layer 2"><g id="Layer_1-2" data-name="Layer 1"><path class="cls-1" d="M73.8,336.31c.81-19.94,1.41-37.1,2.21-54.26.59-12.44,1.2-24.89,2.23-37.3,1-11.69,2.34-23.35,3.88-35Q84.73,190,88,170.31c1.65-9.93,3.71-19.8,5.75-29.66a120,120,0,0,1,4.11-16.17c.54-1.52,3.64-3,5.55-3,10.63.17,21.26,1.25,31.88,1.18a282.24,282.24,0,0,0,30.47-1.91c11.12-1.3,22.15-3.46,33.21-5.26,8.7-1.41,17.46-2.52,26.06-4.35,9.79-2.09,19.43-4.84,29.15-7.29,8.34-2.09,16.73-4,25-6.29,7.8-2.15,15.53-4.59,23.26-7,6.74-2.11,13.45-4.33,20.15-6.58C333.09,80.45,343.57,77,354,73.28q17.35-6.23,34.54-13c10.1-4,20.1-8.19,30.07-12.48,12.71-5.46,25.43-10.9,38-16.69C473.75,23.2,490.82,15,507.91,6.78c4.08-2,7.92-4.39,12-6.39a4.74,4.74,0,0,1,3.66,0C545.45,11,567.1,22.18,589.2,32.42c17.28,8,35,15,52.67,22.27,14.23,5.87,28.46,11.77,42.91,17.09C698.71,76.91,712.89,81.36,727,86c11.72,3.85,23.4,7.83,35.24,11.22,11,3.15,22.15,5.61,33.25,8.32,10.36,2.52,20.69,5.26,31.14,7.36,9.1,1.83,18.32,3.18,27.54,4.25,13.77,1.61,27.55,3.13,41.37,4.08,13.21.89,26.46,1,39.7,1.41a8.62,8.62,0,0,0,2.76-.75c5.1-1.71,7.16-.12,8.19,5.2,1.43,7.35,3.46,14.58,5.14,21.89.89,3.91,1.72,7.83,2.32,11.79,1.51,9.81,2.83,19.65,4.28,29.47,1.78,12.07,3.62,24.13,5.43,36.19.07.48.08,1,.11,1.47.82,12.25,1.8,24.49,2.42,36.76.82,16,1.35,32,2,48.07.47,11.3,1.43,22.61,1.3,33.91-.19,15.88-1.09,31.76-1.89,47.62-.41,8.38-1.12,16.75-1.95,25.1-1.15,11.54-2.35,23.08-3.89,34.57q-2.6,19.33-5.88,38.57c-1.68,9.92-3.57,19.82-5.83,29.63-2.83,12.22-6.11,24.34-9.26,36.49-2.7,10.47-5.1,21-8.33,31.34-4,12.74-8.5,25.3-13.07,37.83-4.5,12.3-8.76,24.72-14.18,36.62-9.68,21.25-19.65,42.41-30.44,63.12-8.74,16.77-18.47,33.07-28.5,49.11-7.84,12.55-16.46,24.67-25.39,36.47q-16.9,22.33-34.91,43.82a632.9,632.9,0,0,1-68.1,69.28c-21.74,19-44.11,37.42-67.46,54.37s-47.72,32.11-72.28,47.06c-17.46,10.63-35.92,19.62-54,29.21a5.32,5.32,0,0,1-4.27-.21c-18.48-10-37.23-19.47-55.21-30.26-21.83-13.12-43.47-26.67-64.32-41.27-19.84-13.9-38.87-29-57.68-44.35-12.13-9.86-23.51-20.72-34.73-31.65-13.92-13.56-28.14-27-40.75-41.67-18.46-21.55-36.49-43.59-53.08-66.59a567.94,567.94,0,0,1-51.78-86c-9.63-20-18.85-40.29-27.51-60.75-6.94-16.42-13.15-33.18-18.94-50-4.11-12-7-24.38-10.39-36.61C102,556,98.75,544.49,96,532.89c-1.84-7.59-2.88-15.38-4.39-23.05-1.74-8.78-3.68-17.52-5.38-26.31-.88-4.57-1.53-9.2-2.11-13.83-.83-6.55-1.43-13.13-2.25-19.69-1.13-9.06-2.39-18.11-3.58-27.17a14.13,14.13,0,0,1-.07-1.46c-.83-18.79-1.59-37.58-2.52-56.37C75.12,354.53,74.31,344.06,73.8,336.31Z"></path><path class="cls-2" d="M116.7,354.75c.73-18,1.27-33.56,2-49.07.53-11.25,1.08-22.51,2-33.73.88-10.56,2.11-21.11,3.5-31.62q2.37-17.9,5.34-35.69c1.49-9,3.35-17.9,5.2-26.81a109.82,109.82,0,0,1,3.71-14.62c.49-1.38,3.3-2.76,5-2.73,9.61.15,19.22,1.13,28.83,1.06a251.21,251.21,0,0,0,27.54-1.73c10.06-1.17,20-3.12,30-4.75,7.86-1.27,15.78-2.28,23.56-3.94,8.85-1.88,17.57-4.37,26.35-6.58,7.54-1.89,15.13-3.64,22.64-5.7,7.05-1.93,14-4.14,21-6.32q9.15-2.88,18.22-6c9.45-3.17,18.93-6.27,28.31-9.65q15.71-5.64,31.24-11.72c9.13-3.59,18.17-7.41,27.18-11.28,11.5-4.94,23-9.87,34.35-15.11,15.55-7.17,31-14.6,46.44-22,3.68-1.78,7.16-4,10.83-5.78a4.34,4.34,0,0,1,3.32,0c19.79,9.64,39.37,19.74,59.35,29,15.63,7.25,31.68,13.58,47.62,20.15,12.87,5.3,25.74,10.64,38.8,15.45,12.6,4.63,25.42,8.66,38.18,12.86,10.59,3.48,21.15,7.08,31.86,10.15,9.93,2.85,20,5.07,30.07,7.52,9.37,2.28,18.7,4.76,28.15,6.66,8.23,1.65,16.56,2.87,24.9,3.84,12.45,1.46,24.91,2.83,37.41,3.68,11.94.81,23.92.93,35.89,1.29a8,8,0,0,0,2.5-.69c4.61-1.55,6.47-.11,7.4,4.71,1.3,6.64,3.13,13.18,4.65,19.78.81,3.53,1.56,7.09,2.1,10.67,1.36,8.87,2.56,17.77,3.87,26.65,1.61,10.91,3.27,21.81,4.91,32.72.06.44.07.87.1,1.32.74,11.08,1.62,22.15,2.18,33.24.74,14.48,1.23,29,1.82,43.46.43,10.23,1.3,20.45,1.18,30.67-.17,14.35-1,28.71-1.7,43.05-.39,7.58-1,15.15-1.78,22.7-1,10.43-2.12,20.87-3.51,31.26Q917,478.58,914,496c-1.51,9-3.22,17.92-5.27,26.79-2.56,11-5.53,22-8.37,33-2.44,9.46-4.62,19-7.53,28.33C889.23,595.6,885.13,607,881,618.3c-4.06,11.11-7.91,22.35-12.81,33.1-8.75,19.22-17.77,38.35-27.53,57.08-7.9,15.16-16.69,29.89-25.76,44.4-7.09,11.35-14.88,22.3-23,33q-15.28,20.21-31.57,39.62a571,571,0,0,1-61.58,62.64c-19.65,17.17-39.87,33.84-61,49.15s-43.16,29-65.36,42.56c-15.79,9.61-32.48,17.74-48.83,26.41a4.85,4.85,0,0,1-3.87-.19c-16.7-9-33.65-17.6-49.91-27.36-19.74-11.86-39.3-24.11-58.15-37.32-17.95-12.57-35.16-26.25-52.16-40.09-11-8.93-21.26-18.74-31.4-28.63-12.59-12.25-25.44-24.36-36.85-37.68-16.69-19.47-33-39.4-48-60.2a514.12,514.12,0,0,1-46.81-77.72c-8.71-18.11-17.05-36.43-24.87-54.94-6.28-14.84-11.9-30-17.13-45.24-3.72-10.83-6.36-22-9.4-33.09-2.86-10.42-5.8-20.81-8.33-31.31-1.66-6.86-2.6-13.89-4-20.83-1.57-7.94-3.33-15.84-4.86-23.79-.81-4.14-1.39-8.32-1.91-12.5-.75-5.93-1.29-11.88-2-17.8-1-8.2-2.17-16.38-3.25-24.58-.06-.43,0-.88-.06-1.32-.75-17-1.44-34-2.28-51C117.9,371.22,117.16,361.75,116.7,354.75Z"></path><path class="cls-1" d="M161.75,374.39c.64-16,1.12-29.82,1.77-43.6.47-10,1-20,1.79-30,.79-9.39,1.88-18.76,3.12-28.11q2.1-15.88,4.74-31.71c1.33-8,3-15.91,4.62-23.83a96.52,96.52,0,0,1,3.3-13c.44-1.23,2.94-2.45,4.47-2.43,8.54.13,17.08,1,25.61.94a225,225,0,0,0,24.48-1.53c8.94-1,17.8-2.78,26.7-4.22,7-1.14,14-2,20.94-3.5,7.86-1.68,15.61-3.89,23.41-5.85,6.71-1.69,13.45-3.24,20.12-5.07,6.27-1.72,12.48-3.68,18.69-5.62,5.42-1.7,10.81-3.49,16.19-5.29,8.4-2.82,16.82-5.58,25.16-8.58q14-5,27.76-10.42c8.12-3.19,16.15-6.58,24.16-10,10.21-4.39,20.44-8.77,30.52-13.42,13.83-6.38,27.55-13,41.28-19.57,3.27-1.58,6.36-3.54,9.63-5.14a3.8,3.8,0,0,1,2.94,0c17.59,8.58,35,17.54,52.75,25.78,13.89,6.44,28.16,12.06,42.32,17.9,11.44,4.71,22.88,9.45,34.49,13.72,11.19,4.12,22.59,7.71,33.93,11.44,9.41,3.1,18.79,6.29,28.31,9,8.83,2.52,17.8,4.51,26.72,6.68,8.33,2,16.62,4.23,25,5.92,7.31,1.47,14.72,2.55,22.14,3.42,11,1.29,22.14,2.51,33.24,3.27,10.61.72,21.26.82,31.9,1.14a7,7,0,0,0,2.21-.61c4.1-1.37,5.75-.1,6.59,4.18,1.15,5.9,2.78,11.72,4.12,17.59.72,3.14,1.39,6.29,1.88,9.47,1.2,7.89,2.27,15.79,3.43,23.69,1.43,9.69,2.91,19.38,4.36,29.08a11.3,11.3,0,0,1,.09,1.17c.66,9.85,1.45,19.69,2,29.54.65,12.88,1.09,25.76,1.62,38.63.37,9.09,1.15,18.17,1,27.25-.15,12.76-.88,25.52-1.52,38.27-.33,6.73-.9,13.46-1.57,20.17-.93,9.27-1.88,18.54-3.13,27.78q-2.07,15.52-4.72,31c-1.34,8-2.86,15.93-4.68,23.8-2.28,9.83-4.91,19.57-7.44,29.34-2.17,8.41-4.11,16.9-6.69,25.18-3.2,10.23-6.84,20.33-10.52,30.4-3.61,9.87-7,19.86-11.38,29.41-7.78,17.09-15.8,34.09-24.47,50.74-7,13.47-14.84,26.56-22.89,39.45C775.94,738.31,769,748,761.84,757.54q-13.58,17.94-28.06,35.2a506.5,506.5,0,0,1-54.72,55.67c-17.47,15.27-35.44,30.07-54.2,43.69s-38.35,25.81-58.09,37.82c-14,8.54-28.86,15.77-43.4,23.47a4.25,4.25,0,0,1-3.43-.17c-14.85-8-29.92-15.64-44.36-24.32-17.55-10.53-34.93-21.42-51.68-33.15-15.95-11.18-31.24-23.34-46.36-35.64-9.75-7.93-18.89-16.66-27.9-25.43C338.45,823.78,327,813,316.89,801.19c-14.84-17.32-29.33-35-42.66-53.51a457.65,457.65,0,0,1-41.6-69.08Q221,654.46,210.52,629.79C205,616.59,200,603.13,195.3,589.58,192,580,189.65,570,187,560.16c-2.54-9.25-5.16-18.49-7.41-27.82-1.47-6.1-2.31-12.35-3.53-18.52-1.39-7.05-2.95-14.07-4.32-21.14-.7-3.67-1.23-7.39-1.69-11.11-.67-5.26-1.15-10.55-1.81-15.82-.91-7.28-1.92-14.56-2.88-21.84-.05-.38,0-.78-.06-1.17-.67-15.1-1.27-30.2-2-45.29C162.81,389,162.15,380.61,161.75,374.39Z"></path><path class="cls-1" d="M18.49,830.3c3.81,1.77,7.66,3.51,11.46,5.34,9.22,4.43,18.32,9.1,27.66,13.26,3.79,1.68,8.07,2.26,12.12,3.4,5.83,1.66,11.81,1.75,17.81,2.18a102,102,0,0,0,16.33-.52c5.94-.53,11.81-2.14,17.63-3.61,7.36-1.88,14.66-4,21.93-6.18,7-2.11,14-4.5,21-6.65,5-1.52,10-2.77,14.92-4.26s9.79-3.22,14.72-4.71,10-2.79,14.92-4.26c3.79-1.12,7.53-2.39,11.31-3.54s7.61-2.24,11.41-3.4,7.85-2.45,11.78-3.65c3.71-1.13,7.45-2.18,11.16-3.31,4-1.21,8-2.48,12-3.67s7.76-2.21,11.63-3.34,7.74-2.29,11.61-3.45,7.71-2.35,11.58-3.48c4.34-1.27,8.69-2.52,13.05-3.72,3-.82,6-1.51,8.94-2.29,3.36-.9,6.7-1.89,10.07-2.72s6.67-1.49,10-2.29c3.63-.88,7.22-1.9,10.86-2.75,3.4-.8,6.85-1.45,10.26-2.2,4.21-.92,8.39-1.89,12.59-2.8,1.92-.43,3.84-.8,5.78-1.13,6.27-1.07,12.54-2.11,18.82-3.17,5.86-1,11.71-2,17.59-2.93q10.53-1.62,21.09-3c5.45-.74,10.91-1.38,16.38-2,6.19-.71,12.4-1.32,18.59-2,5.14-.6,10.25-1.48,15.4-1.92,5.74-.5,11.51-.81,17.27-.88,10.88-.14,21.77,0,32.65-.08a89.07,89.07,0,0,1,17.84,1.78,87.53,87.53,0,0,0,9.31,1.07c5.09.46,10.19.74,15.27,1.26,5.72.57,11.41,1.29,17.11,2,4.62.58,9.25,1.21,13.85,2,5.24.85,10.45,1.88,15.69,2.74,4.86.79,9.74,1.38,14.59,2.24,4.4.77,8.76,1.8,13.14,2.7,2,.41,4,.75,6,1.17,4.45.94,8.89,1.92,13.34,2.84,3.75.77,7.53,1.4,11.27,2.23,3.41.76,6.76,1.73,10.16,2.56s6.83,1.54,10.23,2.39c3.22.8,6.41,1.71,9.62,2.56,3,.81,6.12,1.56,9.17,2.41,4.19,1.19,8.35,2.45,12.53,3.66,3.89,1.12,7.8,2.2,11.69,3.32s7.79,2.24,11.67,3.4,7.74,2.37,11.6,3.56,8,2.52,12,3.72c3.81,1.14,7.65,2.16,11.46,3.29s7.72,2.4,11.59,3.57,7.61,2.26,11.42,3.38,7.9,2.33,11.85,3.52,7.71,2.31,11.56,3.49c4.92,1.53,9.83,3.1,14.76,4.61,3.72,1.15,7.46,2.2,11.19,3.33,4,1.22,8,2.51,12,3.72,3.71,1.11,7.46,2.14,11.17,3.26,3.93,1.18,7.84,2.44,11.77,3.61s7.92,2.28,11.89,3.41c3.26.92,6.52,1.88,9.8,2.72a45.89,45.89,0,0,0,5.79,1.13c4,.47,8,.78,12.05,1.19,2.11.21,4.23.82,6.31.68,5.29-.36,10.59-.92,15.84-1.64,3.46-.47,6.87-1.33,10.3-2C984.51,849.9,990.79,847,997,844c7.43-3.59,14.84-7.24,22.24-10.88a9.11,9.11,0,0,0,1.31-1c1.41,2.35,2.75,4.65,4.14,6.92,2.91,4.69,3.54,10,4.21,15.3s1.77,10.47,2.66,15.7c.4,2.41.81,4.83,1.12,7.26.43,3.34.66,6.72,1.19,10.05.82,5.14,1.85,10.26,2.75,15.38.39,2.27.72,4.55,1,6.83.42,3.25.69,6.53,1.22,9.77.83,5.08,1.9,10.12,2.73,15.2a78.61,78.61,0,0,1,1.17,10c.21,6.48.35,13,0,19.44-.19,4-3.11,7-5.61,9.87a33.23,33.23,0,0,1-18.86,11.05,153.64,153.64,0,0,1-18.13,2.89c-8.71.66-17.48.88-26.21.83-4.63,0-9.26-1-13.88-1.6-3.1-.38-6.22-.67-9.3-1.2-4.8-.83-9.58-1.84-14.37-2.78-1.92-.38-3.85-.74-5.77-1.15-6.13-1.28-12.24-2.62-18.37-3.87-3.84-.78-7.72-1.38-11.55-2.19s-7.41-1.78-11.12-2.65c-2-.46-4-.82-6-1.26-5.7-1.28-11.4-2.6-17.11-3.84-3.58-.78-7.2-1.41-10.77-2.21S848.58,964,845,963.15c-3.41-.8-6.84-1.47-10.25-2.27-3.79-.89-7.55-1.89-11.33-2.77-3.42-.8-6.86-1.45-10.27-2.27s-6.56-1.74-9.85-2.58-6.47-1.54-9.7-2.35c-3.45-.87-6.88-1.81-10.33-2.69-3.07-.78-6.15-1.49-9.22-2.29-4.62-1.2-9.23-2.45-13.86-3.65-3.06-.8-6.15-1.51-9.22-2.32-4.61-1.22-9.21-2.51-13.83-3.72-3.06-.8-6.16-1.48-9.23-2.27-3.37-.87-6.72-1.85-10.09-2.72-3.15-.81-6.32-1.49-9.47-2.3s-6.54-1.81-9.83-2.66c-3.06-.8-6.15-1.5-9.22-2.29-3.53-.89-7-1.86-10.57-2.74-3.15-.78-6.33-1.46-9.49-2.23-3.62-.89-7.22-1.85-10.84-2.72-3.34-.8-6.69-1.48-10-2.26-4-.92-7.88-1.91-11.84-2.8-3.57-.8-7.18-1.46-10.77-2.22-4-.87-8.08-1.78-12.12-2.67-2-.43-4-.88-6-1.23Q598.29,903.51,589,902c-4-.68-8.05-1.41-12.1-2-5.43-.76-10.86-1.53-16.32-2q-13.53-1.18-27.09-2c-6.67-.4-13.34-.74-20-.69s-13.21.47-19.79,1c-5.9.45-11.8,1.05-17.65,1.93-6.85,1-13.64,2.46-20.48,3.67-4.42.78-8.87,1.39-13.28,2.23-4.08.77-8.11,1.77-12.17,2.65-1.92.42-3.84.8-5.76,1.21-6,1.3-12.07,2.63-18.11,3.91-3.59.76-7.21,1.37-10.78,2.19-5,1.15-9.91,2.46-14.88,3.65-3.42.8-6.87,1.46-10.27,2.29s-7.05,1.85-10.58,2.72c-3.16.79-6.34,1.46-9.49,2.25-3.45.86-6.87,1.83-10.32,2.69-3.23.81-6.5,1.49-9.72,2.32-4.55,1.17-9.07,2.44-13.62,3.63-3.06.8-6.16,1.51-9.23,2.31-4.54,1.18-9.07,2.41-13.61,3.61-3.06.81-6.14,1.56-9.2,2.38-4.54,1.2-9.06,2.47-13.6,3.67-3.07.81-6.16,1.51-9.22,2.33-4.46,1.2-8.9,2.49-13.37,3.67-3.13.83-6.3,1.52-9.44,2.33s-6.25,1.71-9.38,2.56c-3,.8-6,1.57-8.93,2.35-3.53.92-7.05,1.86-10.58,2.77-3,.76-6,1.47-9,2.22-3.78.93-7.54,1.91-11.33,2.8-3.41.8-6.85,1.46-10.27,2.25-3.64.84-7.25,1.79-10.88,2.66-1.91.45-3.82.84-5.73,1.26l-12.62,2.78c-1.83.41-3.65.82-5.5,1.15-6.09,1.09-12.2,2.14-18.3,3.19q-8.81,1.51-17.6,3-5.91,1-11.83,1.93l-17.9,2.76-.49,0c-10,.34-20,1-30,.89a85,85,0,0,1-16.33-1.93C24.31,985,16.47,983.07,10,977.75a26.8,26.8,0,0,1-8-11.44c-2.17-5.56-2.27-11.31-1.77-17,.48-5.43,1.72-10.78,2.6-16.17.4-2.5.79-5,1.12-7.51.75-5.78,1.42-11.58,2.21-17.35,1-7,2-13.92,3.05-20.88.63-4.29,1.26-8.58,1.92-12.87q1.49-9.69,3-19.37,1.46-9.2,3-18.38C17.53,834.68,18,832.62,18.49,830.3Zm990.4,31.81a5.48,5.48,0,0,0-1.51.23,91.29,91.29,0,0,1-26.54,9.91c-7.27,1.41-14.58,3.08-21.94,3.52-7.54.45-15.16-.45-22.75-.76a7.14,7.14,0,0,1-1.23-.17c-4.4-.89-8.8-1.71-13.17-2.69s-8.85-2-13.22-3.29c-5.13-1.45-10.19-3.13-15.27-4.71-3.78-1.17-7.56-2.37-11.34-3.52s-7.61-2.3-11.42-3.42-7.77-2.2-11.64-3.37-7.86-2.45-11.79-3.64-7.63-2.22-11.43-3.38c-4.95-1.49-9.89-3-14.83-4.57C816.88,841,813,839.79,809,838.6c-3.79-1.13-7.6-2.22-11.4-3.34S789.86,833,786,831.85s-7.7-2.42-11.57-3.57S766.78,826.15,763,825c-4-1.2-8-2.49-12-3.71-3.79-1.15-7.59-2.27-11.39-3.39-4.11-1.2-8.22-2.43-12.35-3.58s-8.3-2.22-12.46-3.32c-4.7-1.24-9.41-2.5-14.13-3.69-3.15-.8-6.33-1.48-9.49-2.22-3.87-.92-7.72-1.9-11.6-2.76-3.59-.79-7.2-1.44-10.78-2.22-3.9-.85-7.75-1.9-11.67-2.66-4.32-.85-8.71-1.42-13.05-2.21-6.66-1.22-13.28-2.66-20-3.75-5.67-.92-11.39-1.49-17.1-2.22-2.6-.34-5.19-.69-7.79-1-6.67-.92-13.32-2-20-2.75-5-.58-10-.78-15-1.23-3-.27-5.87-.68-8.81-1-4.8-.58-9.59-1.32-14.4-1.66-3.8-.27-7.64-.13-11.46,0-14.44.36-28.93-1.09-43.29,1.74-5.23,1-10.6,1.36-15.9,2-6.2.71-12.41,1.33-18.61,2.07-5.13.6-10.26,1.26-15.36,2-6.67,1-13.31,2-20,3s-13.27,2.09-19.91,3.15c-2,.34-4,.73-6.05,1.13-4.47.92-8.93,1.86-13.39,2.79-3.6.75-7.2,1.48-10.78,2.29s-7.42,1.8-11.14,2.67c-3.32.77-6.68,1.42-10,2.23-3.55.86-7.07,1.86-10.6,2.78-3,.77-6,1.44-9,2.25-4.36,1.19-8.7,2.48-13.05,3.71-4,1.11-8,2.14-12,3.33-4.95,1.47-9.86,3.11-14.81,4.6-4,1.19-8,2.2-11.94,3.38-5,1.5-10,3.11-15,4.63-3.72,1.13-7.48,2.14-11.19,3.29-4.85,1.5-9.64,3.15-14.5,4.61-4,1.2-8,2.13-11.92,3.33-5.95,1.81-11.84,3.83-17.8,5.63-5,1.52-10.14,2.78-15.18,4.31-5.94,1.81-11.81,3.86-17.75,5.66s-12.15,3.42-18.2,5.25-12.1,4-18.23,5.7-12.16,3.05-18.31,4.19A130.61,130.61,0,0,1,97,875.8c-7.23.27-14.51-.47-21.76-.77a6,6,0,0,1-.74-.12c-4.4-.92-8.82-1.7-13.17-2.82A107.93,107.93,0,0,1,50,868.53c-5-1.91-9.93-4.1-15.3-6.35-.25,1.28-.54,2.51-.72,3.76-.45,3.18-.78,6.37-1.26,9.54-.88,5.66-1.88,11.31-2.73,17-.48,3.17-.68,6.39-1.18,9.56-.85,5.49-1.93,11-2.74,16.45-.84,5.7-1.46,11.43-2.22,17.14-.32,2.35-.79,4.68-1.1,7-.59,4.56-1.36,9.11-1.55,13.69A5.55,5.55,0,0,0,24.67,962c3.6,1.35,7.17,3.12,10.91,3.66,7.49,1.09,15.08,1.54,22.64,2.06,2,.14,4.05-.49,6.09-.64,6.42-.47,12.87-.67,19.26-1.39,5.53-.61,11-1.83,16.49-2.69,4.94-.78,9.91-1.43,14.86-2.18,2.19-.33,4.38-.73,6.55-1.15,4.56-.9,9.12-1.85,13.68-2.76,3.92-.78,7.87-1.47,11.79-2.3s7.92-1.81,11.89-2.69c3.57-.8,7.17-1.5,10.73-2.35,4.83-1.14,9.62-2.43,14.45-3.57,3.4-.81,6.84-1.44,10.24-2.25,3.63-.88,7.23-1.88,10.85-2.8,3-.76,6-1.43,9-2.21,4.7-1.23,9.39-2.53,14.09-3.76,3-.79,6-1.48,9-2.28,4.54-1.21,9.07-2.48,13.61-3.7,3-.8,6-1.53,9-2.34,3.21-.85,6.39-1.79,9.6-2.63s6.16-1.51,9.23-2.32c3.27-.86,6.53-1.81,9.8-2.7s6.43-1.75,9.64-2.6c3-.79,6-1.59,8.95-2.33,3.24-.8,6.49-1.52,9.73-2.34,3.45-.86,6.88-1.82,10.33-2.69,3.16-.81,6.33-1.54,9.49-2.34,4.72-1.19,9.42-2.44,14.15-3.62,3.24-.81,6.5-1.53,9.74-2.32,3.63-.88,7.24-1.82,10.87-2.68,3.34-.79,6.69-1.51,10-2.29,3.87-.89,7.73-1.84,11.61-2.71,3.5-.8,7-1.51,10.52-2.29,3.8-.86,7.58-1.82,11.4-2.63s7.71-1.41,11.55-2.21c5.82-1.2,11.59-2.58,17.43-3.72,4.57-.88,9.19-1.51,13.8-2.22,6.56-1,13.12-2,19.69-2.94,3.42-.47,6.87-.75,10.31-1.06,6.31-.57,12.63-1.51,18.95-1.57,10.82-.09,21.66.2,32.48.68,8.48.37,16.93,1.18,25.39,2,5.15.48,10.27,1.27,15.41,2s10.55,1.43,15.82,2.21c1.94.28,3.85.7,5.77,1.09,4.57.92,9.12,1.88,13.68,2.79,3.77.76,7.55,1.44,11.31,2.24,4.05.87,8.09,1.84,12.14,2.75,3.42.76,6.87,1.46,10.28,2.24,3.8.88,7.57,1.84,11.36,2.74,3.25.77,6.52,1.46,9.76,2.25,3.55.87,7.07,1.83,10.62,2.7,3.25.8,6.52,1.49,9.75,2.31,4.72,1.19,9.42,2.47,14.14,3.68,3.08.78,6.19,1.45,9.26,2.25,4.61,1.2,9.19,2.51,13.8,3.71,3.07.81,6.17,1.5,9.23,2.3,4.62,1.21,9.23,2.49,13.85,3.71,3.06.81,6.13,1.57,9.19,2.36,4.64,1.2,9.27,2.44,13.91,3.63,3.15.8,6.31,1.54,9.46,2.35,4.64,1.19,9.26,2.44,13.91,3.62,3.15.8,6.32,1.51,9.48,2.29,3.55.88,7.08,1.83,10.63,2.68,3.25.79,6.51,1.46,9.76,2.22,3.87.91,7.72,1.88,11.58,2.81l10,2.35c3.64.86,7.26,1.77,10.91,2.58s7.2,1.44,10.78,2.25,7.4,1.88,11.12,2.7,7.54,1.44,11.3,2.24c5.89,1.24,11.75,2.56,17.63,3.85,2,.43,4,.84,6,1.28,4,.87,7.95,1.81,11.94,2.64s7.71,1.43,11.55,2.2c4.39.88,8.74,1.95,13.15,2.73,3.31.58,6.68.85,10,1.2,5.89.61,11.78,1.44,17.69,1.69,8.07.36,16.08-.54,24.09-1.62,5.07-.69,10-1.48,14.36-4.26,1.44-.92,3.08-1.85,2.94-4-.34-5.42-.4-10.88-1-16.28-.74-6.34-1.95-12.62-2.95-18.92s-2-12.62-3-18.92-2-12.78-3-19.18C1011,877.14,1010,869.76,1008.89,862.11Z"></path><path class="cls-2" d="M1008.82,862.11c1.08,7.65,2.08,15,3.17,22.41.93,6.4,2,12.78,2.94,19.18s2,12.61,3,18.92,2.21,12.58,3,18.92c.62,5.4.68,10.86,1,16.28.14,2.18-1.5,3.11-2.94,4-4.36,2.78-9.29,3.57-14.36,4.26-8,1.08-16,2-24.09,1.62-5.91-.25-11.8-1.08-17.69-1.69-3.35-.35-6.71-.62-10-1.2-4.41-.78-8.76-1.85-13.15-2.73-3.84-.77-7.71-1.41-11.55-2.2-4-.83-8-1.77-11.94-2.64-2-.44-4-.85-6-1.28-5.88-1.29-11.75-2.61-17.63-3.85-3.76-.8-7.55-1.41-11.3-2.24s-7.4-1.86-11.12-2.7-7.2-1.46-10.78-2.25-7.28-1.72-10.91-2.58l-10-2.35c-3.86-.93-7.72-1.9-11.58-2.81-3.25-.76-6.52-1.43-9.76-2.22-3.55-.85-7.09-1.8-10.63-2.68-3.16-.78-6.33-1.49-9.49-2.29-4.64-1.18-9.26-2.43-13.9-3.62-3.15-.81-6.32-1.55-9.47-2.35-4.64-1.19-9.26-2.43-13.9-3.63-3.06-.79-6.14-1.55-9.19-2.36-4.62-1.22-9.23-2.5-13.85-3.71-3.07-.8-6.16-1.49-9.23-2.3-4.61-1.2-9.19-2.51-13.81-3.71-3.07-.8-6.17-1.47-9.25-2.25-4.72-1.21-9.41-2.49-14.14-3.68-3.24-.82-6.51-1.51-9.75-2.31-3.55-.87-7.07-1.83-10.62-2.7-3.25-.79-6.51-1.48-9.76-2.25-3.79-.9-7.56-1.86-11.36-2.74-3.42-.78-6.86-1.48-10.29-2.24-4-.91-8.08-1.88-12.13-2.75-3.76-.8-7.54-1.48-11.31-2.24-4.56-.91-9.12-1.87-13.68-2.79-1.92-.39-3.83-.81-5.77-1.09q-7.9-1.17-15.83-2.21c-5.13-.7-10.25-1.49-15.4-2-8.46-.79-16.92-1.6-25.39-2-10.82-.48-21.66-.77-32.49-.68-6.31.06-12.63,1-19,1.57-3.43.31-6.88.59-10.3,1.06-6.57.92-13.13,1.93-19.69,2.94-4.61.71-9.23,1.34-13.81,2.22-5.83,1.14-11.6,2.52-17.42,3.72-3.84.8-7.72,1.4-11.55,2.21s-7.6,1.77-11.4,2.63c-3.5.78-7,1.49-10.52,2.29-3.88.87-7.74,1.82-11.62,2.71-3.33.78-6.69,1.5-10,2.29-3.63.86-7.24,1.8-10.87,2.68-3.24.79-6.51,1.51-9.75,2.32-4.72,1.18-9.42,2.43-14.14,3.62-3.16.8-6.33,1.53-9.49,2.34-3.45.87-6.88,1.83-10.33,2.69-3.24.82-6.5,1.54-9.73,2.34-3,.74-6,1.54-8.95,2.33q-4.83,1.27-9.64,2.6c-3.27.89-6.53,1.84-9.8,2.7-3.07.81-6.17,1.51-9.24,2.32s-6.39,1.78-9.59,2.63c-3,.81-6,1.54-9,2.34-4.54,1.22-9.07,2.49-13.61,3.7-3,.8-6,1.49-9,2.28-4.71,1.23-9.39,2.53-14.09,3.76-3,.78-6,1.45-9,2.21-3.62.92-7.22,1.92-10.85,2.8-3.4.81-6.84,1.44-10.24,2.25-4.83,1.14-9.62,2.43-14.45,3.57-3.56.85-7.16,1.55-10.74,2.35-4,.88-7.9,1.86-11.88,2.69s-7.87,1.52-11.79,2.3c-4.57.91-9.12,1.86-13.68,2.76-2.17.42-4.36.82-6.55,1.15-4.95.75-9.92,1.4-14.86,2.18-5.51.86-11,2.08-16.49,2.69-6.39.72-12.85.92-19.26,1.39-2,.15-4.09.78-6.09.64-7.56-.52-15.15-1-22.64-2.06-3.74-.54-7.31-2.31-10.91-3.66a5.55,5.55,0,0,1-3.46-5.69c.19-4.58,1-9.13,1.55-13.69.3-2.36.78-4.69,1.09-7,.77-5.71,1.38-11.44,2.23-17.14.81-5.5,1.89-11,2.74-16.45.5-3.17.7-6.39,1.18-9.56.85-5.66,1.85-11.31,2.72-17,.49-3.17.82-6.36,1.27-9.54.18-1.25.47-2.48.72-3.76,5.37,2.25,10.28,4.44,15.3,6.35a107.93,107.93,0,0,0,11.29,3.56c4.34,1.12,8.77,1.9,13.17,2.82a6.17,6.17,0,0,0,.73.12c7.26.3,14.53,1,21.77.77a130.8,130.8,0,0,0,18.72-2.57q9.22-1.71,18.3-4.19c6.14-1.68,12.14-3.86,18.24-5.7s12.16-3.42,18.2-5.25,11.81-3.85,17.75-5.66c5-1.53,10.15-2.79,15.18-4.31,6-1.8,11.85-3.82,17.8-5.63,3.95-1.2,8-2.13,11.92-3.33,4.86-1.46,9.65-3.11,14.5-4.61,3.71-1.15,7.47-2.16,11.19-3.29,5-1.52,10-3.13,15-4.63,4-1.18,8-2.19,11.93-3.38,5-1.49,9.86-3.13,14.82-4.6,4-1.19,8-2.22,12-3.33,4.35-1.23,8.68-2.52,13.05-3.71,3-.81,6-1.48,9-2.25,3.54-.92,7.06-1.92,10.6-2.78,3.32-.81,6.67-1.46,10-2.23,3.72-.87,7.42-1.82,11.14-2.67s7.18-1.54,10.78-2.29c4.46-.93,8.92-1.87,13.39-2.79,2-.4,4-.79,6.05-1.13q9.94-1.59,19.91-3.15c6.64-1,13.29-2.05,20-3,5.1-.73,10.23-1.39,15.36-2,6.2-.74,12.41-1.36,18.61-2.07,5.3-.61,10.67-1,15.9-2,14.36-2.83,28.85-1.38,43.29-1.74,3.82-.09,7.66-.23,11.46,0,4.81.34,9.6,1.08,14.4,1.66,2.93.34,5.86.75,8.81,1,5,.45,10,.65,15,1.23,6.68.78,13.33,1.83,20,2.75q3.89.54,7.79,1c5.71.73,11.43,1.3,17.1,2.22,6.67,1.09,13.3,2.53,20,3.75,4.35.79,8.74,1.36,13.06,2.21,3.91.76,7.77,1.81,11.67,2.66,3.58.78,7.19,1.43,10.77,2.22,3.88.86,7.73,1.84,11.61,2.76,3.16.74,6.34,1.42,9.49,2.22,4.72,1.19,9.42,2.45,14.13,3.69,4.16,1.1,8.32,2.16,12.46,3.32s8.24,2.38,12.35,3.58c3.79,1.12,7.6,2.24,11.39,3.39,4,1.22,8,2.51,12,3.71,3.8,1.13,7.64,2.14,11.44,3.26s7.71,2.41,11.58,3.57,7.74,2.28,11.61,3.41,7.62,2.21,11.41,3.34,7.86,2.43,11.78,3.65c4.95,1.53,9.89,3.08,14.84,4.57,3.8,1.16,7.62,2.23,11.42,3.38s7.86,2.46,11.8,3.64,7.77,2.24,11.64,3.37,7.62,2.25,11.42,3.42,7.56,2.35,11.34,3.52c5.08,1.58,10.15,3.26,15.27,4.71,4.36,1.24,8.79,2.29,13.22,3.29s8.77,1.8,13.17,2.69a7.14,7.14,0,0,0,1.23.17c7.58.31,15.21,1.21,22.75.76,7.36-.44,14.67-2.11,21.94-3.52a91.29,91.29,0,0,0,26.54-9.91A5.48,5.48,0,0,1,1008.82,862.11Z"></path><path class="cls-1" d="M883.26,859.55a5.82,5.82,0,0,1,.58-.86c3.45-3.45,6.92-6.88,10.37-10.33,3.24-3.25,6.49-6.49,9.72-9.76a186.11,186.11,0,0,1,15.47-14.24c3.64-2.94,7.35-5.8,11.23-8.38A78.19,78.19,0,0,1,946,807.8c3.46-1.32,6.94-2.61,10.47-3.74,2.16-.7,4.43-1.06,6.64-1.58,2-.46,3.94-1,5.94-1.39,1.48-.29,3-.44,4.48-.61a64.1,64.1,0,0,1,6.75-.61,71.06,71.06,0,0,1,9.11.54,30.71,30.71,0,0,1,10.45,2.8,29.74,29.74,0,0,1,9.61,8,51.45,51.45,0,0,1,6.84,11.36c1.28,2.94,2.56,5.9,3.75,8.87,1.11,2.78,2,5.6,1.52,8.7a16.2,16.2,0,0,1-2.46,6.19c-3,4.73-7.1,8.43-11.42,11.88A45.52,45.52,0,0,1,995.61,865c-2.76,1.07-5.52,2.17-8.33,3.1-2,.67-4.15,1.12-6.24,1.62s-4.19,1-6.31,1.4c-1.51.28-3.05.39-4.58.56l-6,.69a2.29,2.29,0,0,1-.37,0c-2.22,0-4.45.11-6.68,0-4.43-.11-8.87-.25-13.3-.49-2.25-.12-4.49-.47-6.73-.74-1.33-.17-2.64-.37-4-.59-2.25-.37-4.5-.74-6.75-1.13q-2.54-.47-5.07-1c-1.92-.41-3.82-.89-5.73-1.33-.8-.19-1.59-.37-2.39-.53-1.87-.39-3.74-.71-5.59-1.15-2.32-.55-4.61-1.2-6.93-1.77-1.67-.41-3.37-.71-5-1.12s-3.25-.87-4.88-1.29c-.8-.21-1.6-.38-2.39-.56Zm38.09-11.22a4.81,4.81,0,0,0,1,.59c1.72.37,3.46.72,5.19,1.05,1.91.37,3.81.74,5.74,1,2.8.44,5.6,1,8.42,1.21,6.14.46,12.28,1.17,18.47.79,2.42-.15,4.85-.25,7.28-.41a20,20,0,0,0,2.16-.3c1.8-.34,3.59-.68,5.39-1.06,1.46-.3,2.94-.58,4.37-1,1.82-.53,3.66-1.09,5.42-1.8a79.51,79.51,0,0,0,7.39-3.24,28.45,28.45,0,0,0,8.84-7.16,1.6,1.6,0,0,0,.31-1.34,45.38,45.38,0,0,0-2.23-5.28c-1.38-2.64-2.84-5.25-4.47-7.73a7.42,7.42,0,0,0-3.82-3.28,26.87,26.87,0,0,0-6.17-1.08,56.5,56.5,0,0,0-7.47.22,54.53,54.53,0,0,0-5.81.83c-1.55.29-3.08.77-4.62,1.14-1.8.43-3.64.73-5.41,1.27-2.32.72-4.59,1.61-6.87,2.46a52.37,52.37,0,0,0-9.92,4.92c-3.38,2.17-6.78,4.35-9.92,6.84C930.12,840.6,925.86,844.46,921.35,848.33Z"></path><path class="cls-2" d="M921.35,848.33c4.51-3.87,8.77-7.73,13.25-11.31,3.14-2.49,6.54-4.67,9.92-6.84a52.37,52.37,0,0,1,9.92-4.92c2.28-.85,4.55-1.74,6.87-2.46,1.77-.54,3.61-.84,5.41-1.27,1.54-.37,3.07-.85,4.62-1.14a54.53,54.53,0,0,1,5.81-.83,56.5,56.5,0,0,1,7.47-.22,26.87,26.87,0,0,1,6.17,1.08,7.42,7.42,0,0,1,3.82,3.28c1.63,2.48,3.09,5.09,4.47,7.73a45.38,45.38,0,0,1,2.23,5.28,1.6,1.6,0,0,1-.31,1.34,28.45,28.45,0,0,1-8.84,7.16,79.51,79.51,0,0,1-7.39,3.24c-1.76.71-3.6,1.27-5.42,1.8-1.43.42-2.91.7-4.37,1-1.8.38-3.59.72-5.39,1.06a20,20,0,0,1-2.16.3c-2.43.16-4.86.26-7.28.41-6.19.38-12.33-.33-18.47-.79-2.82-.22-5.62-.77-8.42-1.21-1.93-.31-3.83-.68-5.74-1-1.73-.33-3.47-.68-5.19-1.05A4.81,4.81,0,0,1,921.35,848.33Z"></path><path class="cls-1" d="M150,860.75c-.8.18-1.6.35-2.39.56-1.63.42-3.24.9-4.88,1.29s-3.37.71-5.05,1.12c-2.31.56-4.6,1.22-6.92,1.77-1.85.43-3.73.76-5.59,1.14-.8.17-1.6.35-2.39.54-1.91.44-3.82.91-5.74,1.34q-2.52.56-5.07,1c-2.24.41-4.49.77-6.74,1.14-1.32.21-2.64.42-4,.59-2.24.28-4.48.61-6.73.73-4.44.25-8.87.39-13.31.51-2.22.06-4.45,0-6.67-.07h-.37c-2-.23-4-.45-6-.69-1.53-.17-3.07-.28-4.58-.56-2.12-.39-4.21-.89-6.31-1.39s-4.21-1-6.24-1.63c-2.81-.93-5.57-2-8.33-3.1a45.59,45.59,0,0,1-12.07-6.75c-4.33-3.45-8.44-7.15-11.43-11.89a16.11,16.11,0,0,1-2.47-6.18c-.49-3.1.41-5.92,1.53-8.7,1.19-3,2.47-5.93,3.75-8.86a51.52,51.52,0,0,1,6.84-11.37,29.9,29.9,0,0,1,9.61-8,30.86,30.86,0,0,1,10.45-2.79,69.24,69.24,0,0,1,9.1-.54,61.75,61.75,0,0,1,6.76.62c1.49.16,3,.3,4.48.6,2,.39,4,.93,5.94,1.39,2.21.52,4.48.88,6.64,1.58,3.53,1.13,7,2.42,10.47,3.74A77.15,77.15,0,0,1,107.69,816c3.88,2.58,7.59,5.44,11.23,8.38a186,186,0,0,1,15.47,14.24q4.85,4.9,9.72,9.75c3.45,3.46,6.91,6.89,10.36,10.34a6.69,6.69,0,0,1,.59.86Zm-46.3-23.66a117.36,117.36,0,0,0-9.93-6.85,51.79,51.79,0,0,0-9.92-4.92c-2.27-.85-4.54-1.73-6.86-2.46-1.77-.54-3.61-.84-5.41-1.27-1.55-.38-3.07-.85-4.63-1.14a54.38,54.38,0,0,0-5.8-.84,60.19,60.19,0,0,0-7.47-.22,26.89,26.89,0,0,0-6.17,1.09,7.33,7.33,0,0,0-3.82,3.27c-1.63,2.49-3.09,5.1-4.47,7.73A45.52,45.52,0,0,0,37,836.77a1.63,1.63,0,0,0,.31,1.35,28.78,28.78,0,0,0,8.83,7.15c2.4,1.23,4.9,2.25,7.4,3.24,1.76.7,3.59,1.27,5.42,1.8,1.43.42,2.91.69,4.37,1q2.68.57,5.39,1.06a20,20,0,0,0,2.16.3c2.43.16,4.85.26,7.28.4,6.19.39,12.33-.33,18.46-.79,2.83-.21,5.63-.76,8.43-1.2,1.92-.3,3.83-.69,5.74-1.05q2.6-.49,5.19-1a5.1,5.1,0,0,0,1-.59C112.46,844.52,108.2,840.66,103.72,837.09Z"></path><path class="cls-2" d="M117,848.39c-4.51-3.87-8.77-7.73-13.25-11.3a117.36,117.36,0,0,0-9.93-6.85,51.79,51.79,0,0,0-9.92-4.92c-2.27-.85-4.54-1.73-6.86-2.46-1.77-.54-3.61-.84-5.41-1.27-1.55-.38-3.07-.85-4.63-1.14a54.38,54.38,0,0,0-5.8-.84,60.19,60.19,0,0,0-7.47-.22,26.89,26.89,0,0,0-6.17,1.09,7.33,7.33,0,0,0-3.82,3.27c-1.63,2.49-3.09,5.1-4.47,7.73A45.52,45.52,0,0,0,37,836.77a1.63,1.63,0,0,0,.31,1.35,28.78,28.78,0,0,0,8.83,7.15c2.4,1.23,4.9,2.25,7.4,3.24,1.76.7,3.59,1.27,5.42,1.8,1.43.42,2.91.69,4.37,1q2.68.57,5.39,1.06a20,20,0,0,0,2.16.3c2.43.16,4.85.26,7.28.4,6.19.39,12.33-.33,18.46-.79,2.83-.21,5.63-.76,8.43-1.2,1.92-.3,3.83-.69,5.74-1.05q2.6-.49,5.19-1A5.1,5.1,0,0,0,117,848.39Z"></path><path class="cls-3" d="M149.71,891.57c-2.31.84-2.82,1.52-3.33,4.34l-4.84,26.71-1.24.29L123,900.74c-1.62-2.07-2.15-2.26-4.49-2l-.24-1,15.33-3.5.23,1-1.48.43c-1.72.48-2.3,1.09-2.08,2,.14.63.36,1,1.73,2.75l9.45,12.41,2.68-15c.36-2,.4-2.48.24-3.15-.3-1.32-1.05-1.46-4.33-.93l-.24-1,9.71-2.22Z"></path><path class="cls-3" d="M191.32,909.91l-26.59,6.53-.25-1c3.28-1.16,3.76-2,3.23-4.12l-4.86-19.79c-.52-2.1-1.55-2.55-4.72-2l-.26-1,26.22-6.44,2,8.3-1.13.28c-2.41-5.28-5.06-6.07-12.47-4.25-2.36.58-2.79,1.38-2.4,3l2.28,9.3c4.81-1.23,6.48-3,5.85-8l1.18-.29,3.43,14-1.18.29c-1.66-4.81-4-5.81-8.93-4.6l2.45,10c.44,1.77,1.39,2.11,4.34,1.39,3.55-.87,6-2.13,7.72-4.26,1.26-1.54,1.78-3,2.48-6l1.27-.31Z"></path><path class="cls-3" d="M224.62,901.4l-12.7-10.47-1.27.33,2.09,8.07c.77,3,1.32,3.26,5,2.76l.26,1-15.31,4-.26-1c3.44-1.28,3.81-1.69,3-4.94l-4.58-17.75c-.83-3.21-1.65-3.75-5-3.09l-.27-1,14-3.6c8.83-2.28,14-1.11,15.23,3.62a6.65,6.65,0,0,1-.78,5.39,11.84,11.84,0,0,1-4.47,3.65l12,9.29a2.61,2.61,0,0,0,2.23.39l.26,1Zm-14.31-11.46c5.93-1.57,8-3.25,6.71-8.28-1.12-4.36-3.25-5.66-7.46-4.57-1.77.45-2.27,1.11-1.92,2.47Z"></path><path class="cls-3" d="M242.28,896.77l-.27-1c3.31-1.19,4-1.9,3.32-4.45L240.18,872c-.61-2.3-1.71-2.63-5-2l-.27-1,15.82-4.22.27,1c-3.31,1-4.08,1.93-3.47,4.23l5.14,19.32c.71,2.67,1.69,2.89,5.18,2.18l.28,1Z"></path><path class="cls-3" d="M288.34,863.49c-2.09-4.68-4.95-5.94-10.55-4.61l5.83,21.65c.84,3.12,1.45,3.4,5.45,2.58l.27,1-16.13,4.34-.27-1c3.81-1.34,4.18-1.92,3.36-5l-5.83-21.65c-5.56,1.67-7.4,4.19-6.85,9.29l-1.31.35-2.09-8.29,27.11-7.3,2.32,8.23Z"></path><path class="cls-3" d="M318.27,876.42l-.27-1,1.42-.51c1.46-.52,2-1,1.72-1.91s-1.17-2.2-3.56-5l-10.18,2.7-.22,1.55c-.2,1.42-.6,3.38-.34,4.36s1.39,1.26,4.11.72l.27,1-9.14,2.42-.27-1c2-.88,2.48-1.8,3.17-6.12l4.07-25.06,1.26-.34L326,867c3.63,4.36,4.68,5,6.54,4.56l.27,1Zm-9-18.69-1.6,11.11,8.82-2.33Z"></path><path class="cls-3" d="M357.25,845.51a11.47,11.47,0,0,0-4.54-4.55,8.33,8.33,0,0,0-6.16-.9c-3.13.8-4.55,3-3.95,5.35.51,2,1.79,2.7,5.86,3.52,2.49.5,4.91.9,7.51,1.47a8.55,8.55,0,0,1,6.78,6c1.32,5.2-2.31,9.93-9,11.63a18.74,18.74,0,0,1-6.15.51,7.87,7.87,0,0,0-2,.06c-.73.18-1,.6-1,1.74l-1.31.34-2.59-10.23,1.32-.33c1.51,2.73,2.51,4,4.21,5.21a8.54,8.54,0,0,0,7.28,1.31c3.49-.88,5.26-3.26,4.54-6.11-.38-1.48-1.72-2.37-3.51-3a44.37,44.37,0,0,0-6.21-1.28c-5.69-.93-8.89-2.53-9.94-6.69-1.33-5.24,1.66-9.24,7.83-10.81a16.06,16.06,0,0,1,5.54-.39,7.46,7.46,0,0,0,2-.07c.82-.21,1.06-.58,1.1-1.77l1.36-.35,2.28,9Z"></path><path class="cls-3" d="M419.2,824.32c-2.33.75-2.87,1.42-3.47,4.22L410,855.08l-1.24.24-16.6-22.73c-1.56-2.13-2.08-2.33-4.43-2.18l-.2-1,15.43-3,.2,1-1.5.38c-1.72.42-2.32,1-2.14,2,.12.63.33,1,1.64,2.8l9,12.73,3.17-14.87c.43-2,.48-2.48.35-3.15-.26-1.33-1-1.49-4.31-1.07l-.2-1,9.78-1.9Z"></path><path class="cls-3" d="M460.28,846.77l-27.15,3.48-.13-1.06c3.39-.77,3.95-1.53,3.67-3.73l-2.58-20.21c-.27-2.15-1.24-2.71-4.47-2.47l-.13-1,26.77-3.43,1.09,8.48-1.16.15c-1.79-5.52-4.34-6.61-11.9-5.64-2.41.31-2.93,1.06-2.73,2.67l1.22,9.49c4.91-.67,6.78-2.28,6.71-7.25l1.21-.15,1.82,14.26-1.21.15c-1.1-5-3.29-6.22-8.35-5.58l1.3,10.21c.23,1.82,1.14,2.26,4.15,1.87,3.62-.46,6.19-1.43,8.16-3.36,1.43-1.38,2.1-2.75,3.14-5.67l1.3-.17Z"></path><path class="cls-3" d="M500.15,814.43c-3,.77-3.53,1.26-3.22,3.92l2.8,24.77-1.3.15L475,822.59l1.89,16.73c.37,3.26,1.26,4,4.88,4l.12,1.05-10.51,1.2-.11-1.06c3.35-.77,4-1.44,3.68-4l-2.25-19.86c-2.23-2.23-3.36-2.7-4.29-2.6l-.12-1,9.81-1.11,18.28,16.33L495,819.56c-.38-3.39-1.31-4.09-4.79-4l-.12-1.06,9.95-1.12Z"></path><path class="cls-3" d="M545.24,817.54c-3,.19-3.72.82-3.91,3.32l-1,13.32c-.33,4.24-1.84,7.41-4.25,8.88a15.11,15.11,0,0,1-8.76,1.67,14.76,14.76,0,0,1-8.46-3c-2.51-2.12-3.4-4.49-3.09-8.6l1.06-13.74c.27-3.44-.27-3.82-3.51-4.37l.08-1.06L529,815.22l-.08,1.06c-3.66,0-4.49.47-4.76,3.94l-1,13.49c-.45,5.89,1.63,8.74,6.15,9.09q8.19.63,8.94-8.78l1-12.72c.24-3.1-.77-4-4.2-4.55l.08-1.06,10.21.79Z"></path><path class="cls-3" d="M574.92,828.87a11.5,11.5,0,0,0-2.54-5.9,8.28,8.28,0,0,0-5.4-3.1c-3.2-.42-5.34,1.11-5.65,3.51-.26,2.07.68,3.18,4.16,5.43,2.13,1.39,4.23,2.65,6.45,4.14A8.55,8.55,0,0,1,576,841c-.69,5.32-5.8,8.39-12.67,7.5a19.11,19.11,0,0,1-5.9-1.8,7.84,7.84,0,0,0-1.85-.66c-.74-.1-1.16.19-1.57,1.25l-1.35-.18L554,836.68l1.35.17c.4,3.1.86,4.66,2,6.39a8.56,8.56,0,0,0,6.29,3.9c3.57.47,6.09-1.09,6.47-4,.19-1.52-.72-2.84-2.17-4.06a43.59,43.59,0,0,0-5.31-3.47c-4.94-3-7.33-5.63-6.78-9.89.69-5.36,5-8,11.26-7.16a16,16,0,0,1,5.3,1.67,7.47,7.47,0,0,0,1.9.68c.83.11,1.19-.15,1.67-1.24l1.39.18L576.22,829Z"></path><path class="cls-3" d="M614.8,835.11c0-5.12-2-7.45-7.69-8.56l-3.65,22.12c-.53,3.19-.09,3.69,3.88,4.6l-.17,1.05-16.48-2.72.17-1.05c4,.36,4.6,0,5.12-3.12l3.66-22.11c-5.75-.78-8.47.75-10.08,5.62l-1.34-.23,1.53-8.41,27.7,4.58-1.31,8.45Z"></path><path class="cls-3" d="M636.43,859.77l.2-1,1.49.16c1.54.17,2.21,0,2.39-1s-.09-2.49-1-6.09l-10.33-2-.88,1.3c-.8,1.19-2,2.77-2.21,3.77s.7,1.74,3.38,2.44l-.21,1L620,856.54l.2-1c2.18.08,3-.54,5.53-4.12l14.62-20.75,1.28.26,5.92,23.78c1.35,5.51,2,6.59,3.88,7l-.21,1ZM636.5,839l-6.31,9.3,8.95,1.76Z"></path><path class="cls-3" d="M685.06,849.48a11.44,11.44,0,0,0-2-6.11,8.34,8.34,0,0,0-5.1-3.58c-3.15-.7-5.41.63-5.94,3-.45,2,.39,3.22,3.66,5.78,2,1.57,4,3,6.05,4.7a8.55,8.55,0,0,1,3.35,8.41c-1.16,5.23-6.53,7.83-13.29,6.33a19,19,0,0,1-5.71-2.32,8.27,8.27,0,0,0-1.78-.83c-.73-.16-1.17.09-1.69,1.11l-1.32-.3,2.29-10.29,1.32.29c.12,3.12.44,4.72,1.42,6.55a8.59,8.59,0,0,0,5.91,4.45c3.52.78,6.16-.55,6.8-3.42.33-1.49-.46-2.89-1.79-4.23a45.16,45.16,0,0,0-5-3.94c-4.67-3.38-6.81-6.26-5.88-10.45,1.17-5.27,5.64-7.5,11.86-6.12a15.8,15.8,0,0,1,5.13,2.14,7.46,7.46,0,0,0,1.82.84c.82.18,1.21,0,1.78-1.09l1.37.31-2,9Z"></path><path class="cls-3" d="M749.61,857.55c-2.44-.31-3.21.06-5,2.34l-16.5,21.55-1.23-.31-5.31-27.65c-.5-2.58-.87-3-3.07-3.85l.26-1,15.24,3.88-.27,1-1.51-.3c-1.75-.35-2.54-.07-2.78.88-.16.61-.12,1,.28,3.23l2.75,15.36,9.21-12.09c1.24-1.62,1.49-2,1.66-2.69.33-1.32-.27-1.79-3.44-2.81l.26-1,9.66,2.46Z"></path><path class="cls-3" d="M751.76,886.85l.27-1c3.47.62,4.42.35,5.1-2.2l5.18-19.31c.62-2.29-.17-3.12-3.37-4.2l.28-1L775,863.33l-.28,1c-3.37-.78-4.5-.38-5.12,1.92l-5.18,19.31c-.72,2.67,0,3.35,3.4,4.48l-.28,1Z"></path><path class="cls-3" d="M798.71,899.22l-6.07-15.3-1.27-.33-2.07,8.07c-.78,3-.42,3.5,3,4.82l-.26,1-15.32-3.93.26-1c3.63.53,4.16.36,5-2.89l4.55-17.76c.83-3.21.37-4.08-2.93-5.14l.27-1,14,3.58c8.84,2.27,12.82,5.79,11.6,10.53a6.71,6.71,0,0,1-3.29,4.34,11.79,11.79,0,0,1-5.68,1l6,13.93a2.65,2.65,0,0,0,1.76,1.42l-.26,1Zm-7-17c5.94,1.48,8.58,1,9.87-4,1.12-4.37-.12-6.53-4.33-7.61-1.77-.45-2.53-.12-2.88,1.24Z"></path><path class="cls-3" d="M846.67,890c.38-5.11-1.55-7.57-7.11-9l-5.11,21.82c-.73,3.15-.33,3.68,3.58,4.86l-.25,1-16.26-3.8.24-1c4,.63,4.59.29,5.31-2.77l5.11-21.83c-5.69-1.15-8.51.2-10.43,4.94l-1.33-.3,2.09-8.3,27.34,6.39L848,890.28Z"></path><path class="cls-3" d="M889.73,891.53c-3-.2-3.8.33-4.32,2.79l-2.75,13.07c-.87,4.16-2.79,7.1-5.37,8.26a15.11,15.11,0,0,1-8.9.51,14.77,14.77,0,0,1-8-4c-2.21-2.43-2.79-4.9-1.94-8.93l2.83-13.49c.71-3.37.23-3.82-2.91-4.79l.22-1L874,887.13l-.22,1c-3.62-.5-4.51-.12-5.23,3.29l-2.79,13.24c-1.22,5.78.48,8.88,4.92,9.81,5.35,1.13,8.7-1.39,10-7.55l2.63-12.48c.63-3-.24-4.1-3.58-5.06l.22-1,10,2.11Z"></path><path class="cls-3" d="M917,904.44a11.49,11.49,0,0,0-2.18-6,8.26,8.26,0,0,0-5.21-3.42c-3.17-.61-5.39.78-5.84,3.17-.39,2,.48,3.21,3.82,5.66,2.05,1.52,4.07,2.9,6.19,4.52a8.56,8.56,0,0,1,3.6,8.31c-1,5.27-6.29,8-13.09,6.72a18.73,18.73,0,0,1-5.79-2.14,7.73,7.73,0,0,0-1.8-.78c-.74-.14-1.17.12-1.65,1.16l-1.34-.26,2-10.36,1.34.25c.21,3.12.58,4.71,1.61,6.51a8.59,8.59,0,0,0,6,4.27c3.54.68,6.14-.73,6.69-3.61.29-1.51-.55-2.88-1.92-4.18a45.51,45.51,0,0,0-5.09-3.79c-4.76-3.25-7-6.06-6.18-10.28,1-5.3,5.42-7.66,11.67-6.47a15.8,15.8,0,0,1,5.19,2,7.48,7.48,0,0,0,1.85.79c.83.16,1.21-.08,1.75-1.14l1.37.26-1.73,9.11Z"></path><path class="cls-2" d="M513,719.79c-2.86-2.64-5.25-5-7.82-7.19-14-11.74-27.49-24.14-42.18-34.92-11.95-8.76-26.17-13.11-41.25-13.23-5.35,0-5.08-3.34-5.08-6.94q0-38.16,0-76.31,0-34.5,0-69c0-7.07.82-7.52,7.77-6.89,27.8,2.53,51.61,13.86,71.72,32.92a102.78,102.78,0,0,1,14.23,17.4,21.73,21.73,0,0,1,3.35,11.43c.16,50,0,100.11,0,150.17A14,14,0,0,1,513,719.79Z"></path><path class="cls-2" d="M530.9,719.85c-.37-3.67-.77-5.78-.77-7.89-.08-47.84-.25-95.68,0-143.52a27.68,27.68,0,0,1,4.55-14.71c18.72-27.08,45-42.37,77.31-47.35,15.23-2.35,14.29-4.09,14.27,12.77q0,68.4-.06,136.8c0,8.1-.07,7.95-8.05,8.55-14.13,1.06-27.48,5.46-38.67,13.79-14.3,10.63-27.45,22.83-41.06,34.4C536.21,714.59,534.17,716.73,530.9,719.85Z"></path><path class="cls-2" d="M506.76,748.86c-16.66-16.7-37.44-25.18-59.53-30.65-18.56-4.6-37.36-8.14-56.71-7.2-8.08.39-8.38-.22-8.42-8q-.41-78.12-.79-156.24c0-8.92,0-8.92,8.57-9,16.33-.07,16.34-.07,16.34,16.47,0,36.43.12,72.85-.07,109.27,0,5.72,1.19,8.42,7.53,9.75A147.83,147.83,0,0,1,494,719.05C501.45,727.2,506.89,736.73,506.76,748.86Z"></path><path class="cls-2" d="M536.35,748c1.75-5.51,2.71-11.15,5.22-16,9.76-18.82,26.41-30.58,44-41.15,15.12-9.1,31.23-15.8,48.8-18.42,4.74-.71,4.46-4,4.46-7.23q.06-23.82,0-47.63,0-36,0-72.06c0-7.55.29-7.87,8-7.8,18.7.19,16.08-2.4,16.12,16.22.11,49,0,98.11,0,147.17,0,9.87,0,10-9.6,9.87-29.3-.34-57.62,4.78-84.22,17.06C558.14,733.16,548.19,740.71,536.35,748Z"></path><path class="cls-2" d="M494.68,753.45c-1.57.09-3.13.25-4.7.25-43.55,0-87.1,0-130.65.19-5.77,0-7.8-1.73-7.81-7.65-.13-52.49-.54-105-.69-157.48,0-2.65,1.28-7.36,2.56-7.58a38.59,38.59,0,0,1,13.7.57c.86.17,1.31,4.35,1.31,6.68.09,39.28,0,78.55.09,117.83,0,17.37-2.28,15.36,15.46,16.23a273.16,273.16,0,0,1,103.58,25.62c2.54,1.2,4.94,2.71,7.4,4.07C494.85,752.6,494.76,753,494.68,753.45Z"></path><path class="cls-2" d="M551,751.66c6.72-3.13,13.31-6.58,20.17-9.35,29.27-11.87,59.61-18.95,91.28-20.1,13-.47,13-.68,13-13.54,0-40.29,0-80.58.09-120.87,0-2.59.91-7.17,2.06-7.4a39.06,39.06,0,0,1,13.16.18c.8.13,1.45,3.91,1.46,6,.09,16.89,0,33.78,0,50.67,0,36.42-.13,72.85,0,109.27,0,5-1.12,7.3-6.75,7.27-43.54-.21-87.09-.15-130.64-.18-1,0-2-.12-3-.17C551.48,752.85,551.22,752.26,551,751.66Z"></path><path class="cls-2" d="M542.1,302.08c-.93,13,2.77,25.17-2.81,37.23C532.28,330.93,533.66,311.52,542.1,302.08Z"></path><path class="cls-2" d="M459,412.22l-29.91-6.34-.3-1.45,28.86-6.22c0-.58,0-1.15,0-1.73-10-1.73-20.55-1.73-28.1-8.87l33.1-3.55c.14-.74.28-1.47.41-2.21l-23.21-19.38c10.7-1.46,18.93,5.18,28.9,7.08Q457.68,358,446.57,346.5l1.53-2c10.1,7.1,21.26,11.24,34.06,13.76L469.4,330.47c11,3.48,16,13,21.88,21.64.87-.47,1.74-.94,2.6-1.42-3-9.31-6-18.63-9.3-29l22.23,23.56,1.82-.8c.82-9.5,1.64-19,2.53-29.19,7.9,8.26,6.22,19,10,28.25,3-10.22-.55-21.89,7-30.26l8,32.5c.64,0,1.27.07,1.91.09,5.27-8,10.56-16,16.19-24.57,3.31,11.1-4.14,20.26-5.4,31.83,11.33-5.55,14.26-15.64,20.65-24.32l-6.38,31.77,1.64,1.26,25.53-15.68c-2.28,11.7-13.35,15.92-16.95,25.51,9.49-5.92,18.45-12.62,30.65-12.84-8.44,9.28-21,14.33-26.11,28.86l33-3.48c-8,9.69-19.9,10.09-29.64,14.35.27,1,.53,2.08.8,3.12h32c0,.38-.1.77-.15,1.14l-32.23,11.89c.08.62.18,1.25.27,1.87q12.95,6.3,25.91,12.56c0,.61,0,1.22,0,1.83-4.77,0-9.59.42-14.3-.12-4.91-.56-9.71-2.05-15.17-1.94,6.67,7.65,17.4,9.3,24.36,16.92l-31-2.86-1,1.9,17.66,22.4-.93,1.41c-10.21-2.07-17.46-9.58-25.13-16.33l-1.76,1.53L577,480.46l-.87.81L550,461.88l-2.14,1.49c1.78,9.79,3.55,19.59,5.43,29.95-10.33-6-11.35-18.2-18.3-26.54-1.58,11.16,5.06,21.86.8,31.55L520.1,468.66l-2,.34c-3,8.39-6,16.79-9.58,26.76-5.62-9.79-.85-19.33-5.29-28.14l-11.19,27.17-1.84-.45V460.17L468.3,480.85c-1.79-12.16,8.25-18.57,11.29-27.62l-1.64-1.4-21.27,18.38c-.46-.39-.91-.8-1.36-1.19q6.65-13.95,13.28-27.88l-1.45-1.61-20.61,6-.63-.76,17.36-15.31-1.15-2.28c-11,2.61-21.12,10.32-34,6.81C439.53,428.17,450.05,422.45,459,412.22ZM578.88,408c0-30.47-26.37-56.06-57.68-56-31.13,0-57.15,25.58-57.47,56.4-.31,30.2,26.3,56.19,57.55,56.2C553,464.55,578.9,439.11,578.88,408Z"></path><path class="cls-2" d="M585.92,383c6.25-12.74,21.93-21.84,32.42-18.29C607.78,371.82,599.35,381,585.92,383Z"></path><path class="cls-2" d="M506.32,338.64c-12.89-8.78-17.86-20.83-13.63-34.66C496.33,316.64,507.36,324.45,506.32,338.64Z"></path><path class="cls-2" d="M436.1,468.87c8.17-9.54,14.54-19.39,26.79-24.09C460.05,458.5,448,469.48,436.1,468.87Z"></path><path class="cls-2" d="M448.48,328.73c8.46,10.65,23.84,10.57,27.76,24.48C463.89,352.89,450,341.33,448.48,328.73Z"></path><path class="cls-2" d="M519.67,476.66c8.58,10.07,11.45,20.91,4.62,33.11C524.25,498.48,514.12,488.79,519.67,476.66Z"></path><path class="cls-2" d="M457.76,380.23c-16,4.45-31.51,2-35.69-7.12C433.85,375.22,446,372.38,457.76,380.23Z"></path><path class="cls-2" d="M587.27,325.74c-9,8.36-6.8,23.89-19.31,30.53C565.32,345.61,575.32,329.63,587.27,325.74Z"></path><path class="cls-2" d="M451.5,414.44c-9.55,10.28-22.87,15.11-32.21,8.55C429.91,418.82,439,411.81,451.5,414.44Z"></path><path class="cls-2" d="M551.52,469.15c12.66,2,20.78,12.47,20.9,26.49C566.86,486.12,554.29,482,551.52,469.15Z"></path><path class="cls-2" d="M588.46,417.22c10.9-9.25,23.78-9.79,35.26-1.72C611.65,415,601,421.48,588.46,417.22Z"></path><path class="cls-2" d="M486.4,468.48c5.42,8.43.75,23.85-9.63,30.87C479.85,488.44,477.05,476.9,486.4,468.48Z"></path><path class="cls-2" d="M605,460.79c-9.69-5.36-21.61-2.56-28-13.24C588.46,444.28,598.7,448.87,605,460.79Z"></path><path class="cls-2" d="M521.81,461.71c-30.62.15-55.17-23.57-55.23-53.35-.06-29,25-53.58,54.7-53.62s54.54,24,54.71,52.82C576.16,437.93,552.51,461.56,521.81,461.71Z"></path><path class="cls-4" d="M314.82,273.4c-.24,0-.36-.39-.36-1.11V264c0-.38.12-1.1.6-1.1h5.27v-20.6H315c-.2,0-.46-.16-.46-1v-8.64c0-.55.19-.83.53-.83h23.71c.49,0,.68.55.88.94l2.69,8.42,2.35-8.53c.2-.45.39-.83.75-.83h22.51c.29,0,.41.38.41.94v8.8c0,.56-.17.72-.41.72h-5.24v20.6H368c.24,0,.48.28.48,1.27v8.36c0,.56-.24.83-.6.83H345c-.24,0-.48-.27-.48-.94v-8.8c0-.44.24-.72.48-.72h5.32V241.51h-.08l-10,31.23c-.17.39-.41.66-.73.66h-2.27c-.25,0-.49-.11-.66-.83l-9.53-30.51H327v20.88h5.24c.29,0,.41.28.41,1v8.81a.59.59,0,0,1-.65.66Z"></path><path class="cls-4" d="M374.2,232.94c0-.73.18-1.06.39-1.06h23.65a.46.46,0,0,1,.5.5v9.19c0,.55-.17.77-.36.77h-5.5v20.71h5.5c.24,0,.36.22.36.61v8.8c0,.67,0,.94-.36.94H374.71c-.39,0-.51-.39-.51-.78V264c0-.77.18-1.05.32-1.05H380V242.29h-5.36a.5.5,0,0,1-.46-.56Z"></path><path class="cls-4" d="M446.66,272c0,1-.29,1.39-.53,1.39H404.88c-.24,0-.49-.39-.49-1.11v-8.36c0-.44.15-1,.63-1h5.26v-20.6h-5.35c-.29,0-.49-.44-.49-1v-8.53c0-.56.2-.94.56-.94h22.94c.36,0,.65.38.65,1.5v7.86c0,.66-.17,1.1-.48,1.1h-5.48v20.6h14v-6.32c0-.55.12-1.66.53-1.66h8.85c.32,0,.61.45.61,1.55Z"></path><path class="cls-4" d="M494.57,272c0,1-.29,1.39-.54,1.39H452.79c-.24,0-.49-.39-.49-1.11v-8.36c0-.44.15-1,.63-1h5.26v-20.6h-5.35c-.29,0-.49-.44-.49-1v-8.53c0-.56.2-.94.56-.94h22.94c.36,0,.65.38.65,1.5v7.86c0,.66-.17,1.1-.48,1.1h-5.48v20.6h14v-6.32c0-.55.12-1.66.53-1.66H494c.32,0,.61.45.61,1.55Z"></path><path class="cls-4" d="M541.13,231.88c.43,0,.55.38.55,1.22v15.78c0,.55-.07.94-.31.94H533c-.18,0-.32,0-.32-.39v-7h-14v5.26h7.81c.25,0,.34.11.34.56V257a.51.51,0,0,1-.58.56h-7.57v5.59h14.22v-6.75c0-.5.07-1.11.46-1.11h8.87c.17,0,.27.28.27,1.05v16.33c0,.39-.1.78-.56.78H500.82c-.31,0-.61.06-.61-.61V264c0-.49.15-.94.37-.94h5.5V242.4h-5.53c-.19,0-.34.11-.34-.56v-9.46a.55.55,0,0,1,.61-.5Z"></path><path class="cls-4" d="M570.32,231.88c.24,0,.5.28.75.66l12.47,24.08V242.34H578.2c-.37,0-.56-.28-.56-.72V233.1c0-.67.17-1.22.34-1.22H595.3c.43,0,.53.83.53,1.39v8.08c0,.71-.24,1-.56,1H590.1V271.9c0,1-.12,1.5-.43,1.5H574.73a.63.63,0,0,1-.6-.39L560.47,246.6v16.34h5.6c.29,0,.61.28.61.83v8.41c0,.83-.19,1.22-.49,1.22H548.52c-.25,0-.37-.39-.37-1.11v-8.36c0-.44.12-1,.61-1H554v-20.6h-5.43c-.17,0-.41-.16-.41-1v-8.64c0-.55.24-.83.6-.83Z"></path><path class="cls-4" d="M623.61,231.88c.24,0,.51.28.75.66l12.47,24.08V242.34h-5.34c-.36,0-.55-.28-.55-.72V233.1c0-.67.17-1.22.33-1.22h17.32c.43,0,.53.83.53,1.39v8.08c0,.71-.24,1-.56,1H643.4V271.9c0,1-.12,1.5-.44,1.5H628a.64.64,0,0,1-.6-.39L613.77,246.6v16.34h5.59c.3,0,.61.28.61.83v8.41c0,.83-.19,1.22-.48,1.22H601.81c-.24,0-.36-.39-.36-1.11v-8.36c0-.44.12-1,.6-1h5.27v-20.6h-5.44c-.17,0-.41-.16-.41-1v-8.64c0-.55.24-.83.61-.83Z"></path><path class="cls-4" d="M654.79,232.94c0-.73.17-1.06.39-1.06h23.64a.47.47,0,0,1,.51.5v9.19c0,.55-.17.77-.36.77h-5.51v20.71H679c.24,0,.36.22.36.61v8.8c0,.67-.05.94-.36.94H655.3c-.39,0-.51-.39-.51-.78V264c0-.77.17-1.05.31-1.05h5.51V242.29h-5.36a.5.5,0,0,1-.46-.56Z"></path><path class="cls-4" d="M704.57,273.4c-.37,0-.56-.5-.56-1.06v-8.08c0-.49.15-.82.39-.82h4.1l-1.43-4.76h-7.52l-1.43,4.76h4.53c.27,0,.39.33.39.66v8.24c0,.67-.09,1.06-.34,1.06H686.21c-.55,0-1-.11-1-.89V264c0-.6.12-.94.49-.94h5l9.41-30.05c.24-.84.56-1.17.85-1.17h11.15c.49,0,.78.61.9,1.17l9.77,30.61h5.36c.41,0,.41,1,.41,1.82v7c0,.67-.24.89-.67.89Zm-3.47-19.82h4.32l-1.89-6.53a.19.19,0,0,0-.36,0Z"></path><path class="cls-3" d="M1163,363.28c-2.13,0-3.19-3.4-3.19-9.69V281.42c0-3.39,1.06-9.69,5.31-9.69h46V91.55H1164c-1.7,0-4-1.46-4-8.73V7.26c0-4.84,1.7-7.26,4.67-7.26h207.5c4.25,0,5.95,4.84,7.65,8.23l23.55,73.63,20.58-74.6c1.7-3.87,3.39-7.26,6.57-7.26h196.9c2.55,0,3.61,3.39,3.61,8.23v77c0,4.84-1.49,6.3-3.61,6.3h-45.82V271.73h46.88c2.12,0,4.24,2.42,4.24,11.14V356c0,4.85-2.12,7.27-5.3,7.27H1427.1c-2.12,0-4.25-2.42-4.25-8.23V278c0-3.88,2.13-6.3,4.25-6.3h46.47V84.28h-.64l-87.42,273.18c-1.48,3.4-3.61,5.82-6.36,5.82h-20c-2.12,0-4.24-1-5.72-7.27L1270.09,89.12h-.42V271.73h45.83c2.54,0,3.6,2.42,3.6,8.72v77c0,4.85-3.18,5.82-5.72,5.82Z"></path><path class="cls-3" d="M1682.54,9.2c0-6.3,1.48-9.2,3.39-9.2H1892.8c1.91,0,4.46,1,4.46,4.36v80.4c0,4.85-1.48,6.79-3.17,6.79h-48.18V272.7h48.18c2.11,0,3.17,1.93,3.17,5.33v77c0,5.81-.43,8.23-3.17,8.23H1687c-3.4,0-4.46-3.4-4.46-6.78V280.93c0-6.78,1.48-9.2,2.76-9.2h48.16V91.06h-46.89c-2.33,0-4-1.94-4-4.85Z"></path><path class="cls-3" d="M2316.5,351.17c0,8.71-2.55,12.11-4.67,12.11h-360.9c-2.13,0-4.25-3.4-4.25-9.69V280.45c0-3.88,1.28-8.72,5.52-8.72h46V91.55h-46.89c-2.55,0-4.24-3.88-4.24-8.73V8.23c0-4.84,1.69-8.23,4.87-8.23H2152.7c3.18,0,5.73,3.39,5.73,13.07V81.86c0,5.81-1.48,9.69-4.24,9.69h-48V271.73h122.85V216.51c0-4.84,1-14.53,4.66-14.53h77.45c2.75,0,5.3,3.88,5.3,13.56Z"></path><path class="cls-3" d="M2735.74,351.17c0,8.71-2.54,12.11-4.67,12.11H2370.16c-2.12,0-4.24-3.4-4.24-9.69V280.45c0-3.88,1.28-8.72,5.52-8.72h46V91.55h-46.89c-2.55,0-4.24-3.88-4.24-8.73V8.23c0-4.84,1.69-8.23,4.88-8.23h200.71c3.19,0,5.73,3.39,5.73,13.07V81.86c0,5.81-1.48,9.69-4.25,9.69h-47.94V271.73h122.84V216.51c0-4.84,1.06-14.53,4.67-14.53h77.45c2.76,0,5.3,3.88,5.3,13.56Z"></path><path class="cls-3" d="M3143.1,0c3.82,0,4.88,3.39,4.88,10.65v138c0,4.85-.64,8.24-2.76,8.24h-73c-1.49,0-2.76,0-2.76-3.39v-61H2946.83v46h68.33c2.12,0,3,1,3,4.84v76c0,3.87-2.55,4.84-5.1,4.84h-66.2v48.93h124.34v-59.1c0-4.36.64-9.69,4-9.69h77.65c1.49,0,2.34,2.42,2.34,9.21V356.5c0,3.38-.85,6.78-4.88,6.78H2790.47c-2.76,0-5.31.48-5.31-5.33V281.42c0-4.36,1.27-8.23,3.18-8.23h48.17V92h-48.38c-1.7,0-3,1-3-4.84V4.36c0-2.42,2.12-4.36,5.31-4.36Z"></path><path class="cls-3" d="M3398.54,0c2.12,0,4.46,2.42,6.57,5.81l109.06,210.7v-125H3467.5c-3.19,0-4.88-2.43-4.88-6.3V10.65c0-5.81,1.49-10.65,3-10.65h151.48c3.83,0,4.68,7.26,4.68,12.11V82.82c0,6.3-2.13,8.73-4.88,8.73h-45.2V350.2c0,8.24-1.06,13.08-3.82,13.08H3437.16a5.69,5.69,0,0,1-5.31-3.4l-119.45-231V271.73h49c2.55,0,5.3,2.42,5.3,7.26v73.63c0,7.26-1.69,10.66-4.24,10.66H3207.8c-2.12,0-3.18-3.4-3.18-9.69V280.45c0-3.88,1.06-8.72,5.3-8.72h46V91.55h-47.53c-1.48,0-3.61-1.46-3.61-8.73V7.26c0-4.84,2.13-7.26,5.31-7.26Z"></path><path class="cls-3" d="M3864.88,0c2.12,0,4.46,2.42,6.58,5.81l109.05,210.7v-125h-46.67c-3.19,0-4.88-2.43-4.88-6.3V10.65c0-5.81,1.48-10.65,3-10.65h151.49c3.82,0,4.67,7.26,4.67,12.11V82.82c0,6.3-2.13,8.73-4.89,8.73H4038V350.2c0,8.24-1.06,13.08-3.81,13.08H3903.49a5.69,5.69,0,0,1-5.3-3.4l-119.45-231V271.73h49c2.55,0,5.3,2.42,5.3,7.26v73.63c0,7.26-1.69,10.66-4.24,10.66H3674.14c-2.12,0-3.19-3.4-3.19-9.69V280.45c0-3.88,1.07-8.72,5.31-8.72h46V91.55h-47.53c-1.48,0-3.61-1.46-3.61-8.73V7.26c0-4.84,2.13-7.26,5.31-7.26Z"></path><path class="cls-3" d="M4137.71,9.2c0-6.3,1.49-9.2,3.4-9.2H4348c1.91,0,4.46,1,4.46,4.36v80.4c0,4.85-1.49,6.79-3.19,6.79h-48.16V272.7h48.16c2.13,0,3.19,1.93,3.19,5.33v77c0,5.81-.43,8.23-3.19,8.23H4142.18c-3.4,0-4.47-3.4-4.47-6.78V280.93c0-6.78,1.49-9.2,2.77-9.2h48.16V91.06h-46.89c-2.33,0-4-1.94-4-4.85Z"></path><path class="cls-3" d="M4576.25,363.28c-3.19,0-4.88-4.36-4.88-9.21V283.36c0-4.37,1.27-7.27,3.39-7.27h32.9l-12.51-41.66h-65.77l-12.52,41.66h36.72c2.34,0,3.4,2.9,3.4,5.81v72.17c0,5.81-.85,9.21-3,9.21H4412.68c-4.88,0-8.49-1-8.49-7.75V281.42c0-5.33,1.06-8.23,4.26-8.23h43.49l82.32-263C4536.38,2.9,4539.14,0,4541.68,0h97.6c4.25,0,6.79,5.33,7.85,10.17L4732.64,278h46.89c3.6,0,3.6,8.72,3.6,16v61.52c0,5.81-2.12,7.75-5.94,7.75ZM4543,189.87h37.77l-16.55-57.15a1.69,1.69,0,0,0-3.17,0Z"></path><path class="cls-3" d="M1517.64,426.17c2.14,0,2.6,2.44,2.6,5.24v55.85c0,1.75-.77,3.14-2,3.14h-34.41L1423.9,684.49c-.61,2.1-1.07,3.49-1.83,3.49h-39.76c-.61,0-.92-1.39-1.53-3.14l-39.15-116.6L1303.1,685.89c-.76,1.74-1.22,2.09-2.75,2.09h-38.53c-1.07,0-1.38-1.74-2-3.14L1199.74,490.4h-31.81c-1.22,0-2.6-1-2.6-5.23V431.06c0-2.45.92-4.89,2.14-4.89H1293.8c1.68,0,3,.7,3,4.89v55.5c0,2.1-.75,3.84-2.13,3.84h-7.37l16.06,49.22,14.68-49.22h-9c-.92,0-2.14,0-2.14-2.09V431.76c0-3.5-.9-5.59,2.46-5.59h101.79c1.38,0,2.76,1.4,2.76,5.24v55.15c0,2.1-.77,3.84-2.14,3.84h-6.23L1421,539.62l15.29-49.22h-9c-.91,0-2.29-1.39-2.29-3.49V431.06c0-3.49,1.38-4.89,4.74-4.89Z"></path><path class="cls-3" d="M1703.71,426.17c70.5,0,115.14,60.74,115.14,123.23,0,63.88-31.65,138.58-108.1,138.58h-27.68c-62.69,0-88.69-30.72-106.12-59.69-13.45-22.69-17.43-54.81-17.43-75,0-26.53,8.26-50.27,16.06-67.38,13.3-29,47.24-59.69,97.86-59.69Zm-53.52,127.42c0,37.35,17.44,73.65,40.07,73.65,25.54,0,39.3-36.3,39.3-67.72,0-31.07-15.3-72.61-41-72.61C1669,486.91,1650.19,518.33,1650.19,553.59Z"></path><path class="cls-3" d="M2054.48,426.17c4,0,37,2.44,50.31,14.66,9.48,8.73,23.39,26.53,23.39,54.81,0,26.18-15.59,45.73-30.58,59,12.08,13.27,19.72,21,24.31,56.9,1.07,6.63,2.45,11.17,4.9,11.17,3.21,0,11.77-6.28,11.77-29.32v-9.77c0-2.1.61-3.49,2.14-3.49h18.05c1.07,0,1.68,1.39,1.68,5.58v37.7c0,37.35-24,64.58-35.17,64.58h-60.71c-9.93,0-19.27-19.55-21.56-29.32-2.29-8.73-5.66-36-7.19-44.33-4.89-27.23-20.18-28.63-23.7-28.63h-38.53v38h35.63c1.38,0,2.29.35,2.29,2.09v60c0,1.74-.91,2.09-2.29,2.09H1861.36c-.76,0-1.69-1.39-1.69-4.88V625.84c0-1.74.76-4.18,1.69-4.18h33.79V489h-34c-1.37,0-2.29-.7-2.29-5.24V431.06c0-2.45.61-4.89,1.69-4.89Zm-80.89,64.23v39.1h46.64c9.94,0,22-4.89,22-18.5,0-16.41-15.75-20.6-18.34-20.6Z"></path><path class="cls-3" d="M2462.43,679.26c0,6.27-1.83,8.72-3.36,8.72H2199c-1.53,0-3.06-2.45-3.06-7V628.29c0-2.8.92-6.28,4-6.28h33.19V492.15h-33.8c-1.83,0-3.06-2.79-3.06-6.29V432.11c0-3.5,1.23-5.94,3.52-5.94h144.65c2.3,0,4.14,2.44,4.14,9.42v49.58c0,4.19-1.08,7-3.06,7H2310.9V622h88.53v-39.8c0-3.49.77-10.47,3.36-10.47h55.82c2,0,3.82,2.79,3.82,9.77Z"></path><path class="cls-3" d="M2535.05,487.61h-33.79c-1.38,0-3.2.7-3.2-4.19V433.15c0-2.79.6-7,3.05-7h164.22c7.19,0,106.88,18.5,106.88,130.56,0,111.7-80.27,131.25-114.52,131.25H2504.47c-3.06,0-6.41,0-6.41-8.72V637.72c0-5.24.3-11.88,3.35-11.88h33.64Zm77.83,138.23H2641c17.59,0,44-22,44-69.11,0-49.22-28.9-69.12-36.4-69.12h-35.78Z"></path><path class="cls-3" d="M3197.6,430.36c.3-2.79,1.68-3.84,2.9-3.84h41.9c2.91,0,4,4.89,4,7.33v63.88c0,2.44-.77,4.19-2,4.19h-50.61c-.61,0-1.38,0-1.68-1.75-5-19.89-21.71-24.43-26.61-24.43h-46.94c-3.82,0-15.14,1.05-15.14,17.46,0,17.45,18.35,16.75,24.47,16.75l29.2.7c15.14,0,50.31,6.63,59.49,11.17,8.86,4.89,41,19.2,41,75,0,79.94-63,91.11-84.86,91.11h-41.44c-17.28,0-35.63-12.22-46.48-23.74l-.92,20.25c-.31,2.79-1.22,3.49-2.29,3.49h-52c-1.07,0-1.53-1.39-1.53-4.19V612.58c0-1.74.46-4.19,1.68-4.19h54.59c1.22,0,2,1.4,2.29,3.84,3.06,23,27.83,24.44,29.51,24.44h55.21c1.68,0,10.85-2.1,10.85-13.62,0-13.26-8.56-17.1-10.7-17.1l-44.35-.7c-11.77,0-47.09-8.38-61.16-17.46-25.08-16.4-37.16-48.52-37.16-73.3,0-34.91,16.67-55.5,25.08-65.63,10.55-13.61,31-22.69,55.81-22.69h42c21.26,0,36.09,11.87,43.89,19.9Z"></path><path class="cls-3" d="M3526.19,572.78c1.37,0,2.91,2.1,2.14,5.59C3525.88,589.19,3517,688,3422.21,688c-97.55,0-121.87-67-121.87-126,0-58.65,25.23-135.8,108.42-135.8,30.12,0,48.62,12.22,64.37,31.77l1.07-23c.15-3.84,1.22-6.29,2-6.29h50c1.83,0,2.91,1.4,2.91,7.69v99.48c0,3.49-.47,5.59-2.3,6.29h-48.17c-1.37,0-1.68,0-2.9-3.15s-11.78-46.77-45-46.77c-33.33,0-40.21,44-40.21,63.53,0,15.36,3.67,67.37,45,67.37,33.19,0,48-33.86,52-47.82.61-2.1,1.53-2.45,2.91-2.45Z"></path><path class="cls-3" d="M3709.78,426.17c1.83,0,2.6,2.44,2.6,5.59v53.75c0,3.5-1.53,4.54-3.83,4.54h-26.4v36.66h72.78V490.05H3728c-1.53,0-2.6-1-2.6-4.19V433.15c0-3.14.92-7,3.21-7h138.27c1.54,0,3.07,2.44,3.07,7v49.92c0,2.44-.46,7-2.46,7h-33.79V621.31h32.72c2.3,0,4.29.7,4.29,7V682.4c0,4.19-1.07,5.58-3.22,5.58H3727.83c-1.69,0-2.45-1.39-2.45-5.93v-56.9c0-2.45.76-3.84,1.83-3.84h27.72v-37.7h-72.78v37.7h28.7c.92,0,1.53,1.39,1.53,3.49v59.34c0,2.45-1.22,3.84-2.29,3.84H3569.3c-.76,0-1.68-1.39-1.68-4.88V625.49c0-1.74.76-4.18,1.68-4.18h35.32V490.05h-35.47c-1.38,0-2.3-1.39-2.3-5.93V431.06c0-2.45.62-4.89,1.69-4.89Z"></path><path class="cls-3" d="M4054.17,426.17c70.49,0,115.13,60.74,115.13,123.23,0,63.88-31.64,138.58-108.1,138.58h-27.68c-62.68,0-88.69-30.72-106.11-59.69-13.46-22.69-17.44-54.81-17.44-75,0-26.53,8.26-50.27,16.06-67.38,13.3-29,47.25-59.69,97.86-59.69Zm-53.52,127.42c0,37.35,17.43,73.65,40.06,73.65,25.54,0,39.3-36.3,39.3-67.72,0-31.07-15.29-72.61-41-72.61C4019.46,486.91,4000.65,518.33,4000.65,553.59Z"></path><path class="cls-3" d="M4356.61,426.17c70.49,0,115.14,60.74,115.14,123.23,0,63.88-31.65,138.58-108.1,138.58H4336c-62.69,0-88.69-30.72-106.12-59.69-13.46-22.69-17.43-54.81-17.43-75,0-26.53,8.26-50.27,16.05-67.38,13.31-29,47.25-59.69,97.87-59.69Zm-53.52,127.42c0,37.35,17.44,73.65,40.06,73.65,25.55,0,39.3-36.3,39.3-67.72,0-31.07-15.29-72.61-41-72.61C4321.9,486.91,4303.09,518.33,4303.09,553.59Z"></path><path class="cls-3" d="M4777.56,679.26c0,6.27-1.83,8.72-3.36,8.72H4514.1c-1.53,0-3.06-2.45-3.06-7V628.29c0-2.8.92-6.28,4-6.28h33.19V492.15h-33.79c-1.84,0-3.07-2.79-3.07-6.29V432.11c0-3.5,1.23-5.94,3.53-5.94h144.65c2.29,0,4.12,2.44,4.12,9.42v49.58c0,4.19-1.07,7-3.05,7H4626V622h88.53v-39.8c0-3.49.77-10.47,3.37-10.47h55.81c2,0,3.82,2.79,3.82,9.77Z"></path><rect class="cls-3" x="1165.33" y="791.71" width="3612.23" height="21.81"></rect><path class="cls-3" d="M1177.28,993.68c.13-3.54.54-24.15.54-38V942.71c0-10.61-.54-35.25-.54-38.05h31.26c-.14,2-.67,26.22-.67,36.83v3.17h.26c7.78-9.15,32.73-37.44,35.82-40.86l22.27,17.81c-5.1,4.88-21.2,19.63-28.44,26.58,4.83,4.88,24,23.17,29.51,28.42l-23.61,18.78c-2.28-2.56-26.83-31.34-35.55-42.93h-.26v2.2c0,9.39.4,36.7.67,39Z"></path><path class="cls-3" d="M1314.5,955.63c0,12.2.4,34,.54,36.83h-31.12c.27-5.37.4-33.9.4-37.07V942.22c0-2.08-.4-33.42-.4-36.34H1315c-.14,2.19-.54,22-.54,36.58Z"></path><path class="cls-3" d="M1338.91,992.46c.81-8.66,4-71.1,5.37-87.31l1.34-.74c19.05,12.69,62.11,42.32,66.8,45.49,0-6.71-.4-39.39-.27-44.63l27.37.61c-.81,9.51-2,27.68-3.22,45.48s-2,35-2.42,42.93l-1.34.61c-16.09-9.51-64.52-44.39-66.53-45.85,0,5,.13,40.24.27,44.26Z"></path><path class="cls-3" d="M1463.52,938.8c0-2.56-.13-29.51-.67-32.92,24.69,0,39,.61,51.51,2.19,35.15,4.39,41.85,21,41.85,30.85,0,38.42-50.16,54.15-93.49,54.15.54-5.61.8-35.85.8-39.15ZM1493,970.88c13.14-2,31.25-10.61,31.25-27.69,0-14.39-16.1-17.8-31.25-17.8Z"></path><path class="cls-3" d="M1635.35,993.68c-4.82,0-53.25-1.22-60.22-1.22.4-6.46.4-32.56.4-35.37V940.75c0-2-.27-31.34-.4-34.87,7.51,0,52.58-1.83,57.54-2.2l.54,20.12c-5,0-26,.61-28.44.61v16.1c2.68,0,18.11-.61,24-1.1l.4,19.51c-3.62,0-21.46-.48-24.41-.48V973c3.49,0,23.74.24,30-.25Z"></path><path class="cls-3" d="M1688.2,955.14c0,4.64.4,35.49.67,37.32H1659c.54-2.93.27-41.58.27-44.15v-10c0-3.66-.27-30.13-.67-32.44,18.37,0,37,.24,49.09,1.7,19.86,2.32,30.59,9.39,30.59,20.61,0,10-6.84,17.69-17.31,24.39,4,4.15,24.55,23,28,26.95l-24.55,16.83c-3.09-4.63-29.11-38.9-32.73-44.27,5.9-3.17,15.43-9.87,15.43-18,0-5.73-4.43-11.22-18.92-11.34Z"></path><path class="cls-3" d="M1837.9,973.56c0,4.63.27,15.49.27,18.05a143.09,143.09,0,0,1-29.65,2.8c-39-.49-55.4-17.07-55.4-36.22,0-14.88,14.22-43.53,69.22-54.51l6.17,23.9c-18.11,2.2-43.73,12.56-43.73,29.27,0,12.07,14.08,16.83,24.28,16.59l.13-9.76c0-3.54-.27-6.83-.27-10.24H1838c-.13,4.75-.13,7.56-.13,11.22Z"></path><path class="cls-3" d="M1847.69,983.44c4-6.22,41.18-63.42,54.19-82.08h1.34C1919.32,923.44,1955.4,975,1961,982l-26.56,14.27c-3.9-6-10.74-16.83-12.08-18.9L1882,979.41c-1.08,1.71-5.91,11.22-8.86,17Zm65.59-23.17c-3.75-7-8.85-15.61-11.27-20.61-3.22,5.85-7.91,14.87-11.4,21.7Z"></path><path class="cls-3" d="M2004.76,955.14c0,4.64.4,35.49.67,37.32h-29.91c.53-2.93.27-41.58.27-44.15v-10c0-3.66-.27-30.13-.68-32.44,18.38,0,37,.24,49.1,1.7,19.85,2.32,30.58,9.39,30.58,20.61,0,10-6.84,17.69-17.3,24.39,4,4.15,24.55,23,28,26.95L2041,996.36c-3.09-4.63-29.11-38.9-32.73-44.27,5.9-3.17,15.42-9.87,15.42-18,0-5.73-4.42-11.22-18.91-11.34Z"></path><path class="cls-3" d="M2093.83,992.46c.26-3.17.4-20.49.4-33.78V926.73c-6.44,0-25.49.61-29.65.73V906.12c6,.49,37.83,1,39.3,1h11.68c2.54,0,31.79-.49,38.36-1v21.34c-2.55-.12-27.37-.73-29.51-.73v33.9c0,12.56.13,29.39.4,31.83Z"></path><path class="cls-3" d="M2227.83,993.68c-4.83,0-53.26-1.22-60.23-1.22.4-6.46.4-32.56.4-35.37V940.75c0-2-.27-31.34-.4-34.87,7.51,0,52.58-1.83,57.54-2.2l.54,20.12c-5,0-26,.61-28.44.61v16.1c2.69,0,18.11-.61,24-1.1l.41,19.51c-3.63,0-21.47-.48-24.42-.48V973c3.49,0,23.75.24,30.05-.25Z"></path><path class="cls-3" d="M2246.87,992.46c.81-8.66,4-71.1,5.37-87.31l1.34-.74c19.05,12.69,62.1,42.32,66.8,45.49,0-6.71-.4-39.39-.27-44.63l27.37.61c-.81,9.51-2,27.68-3.22,45.48s-2,35-2.42,42.93l-1.34.61c-16.1-9.51-64.52-44.39-66.53-45.85,0,5,.13,40.24.27,44.26Z"></path><path class="cls-3" d="M2632.51,993.68c-4.83,0-53.25-1.22-60.23-1.22.41-6.46.41-32.56.41-35.37V940.75c0-2-.27-31.34-.41-34.87,7.52,0,52.59-1.83,57.55-2.2l.54,20.12c-5,0-26,.61-28.44.61v16.1c2.68,0,18.11-.61,24-1.1l.4,19.51c-3.62,0-21.46-.48-24.41-.48V973c3.49,0,23.74.24,30.05-.25Z"></path><path class="cls-3" d="M2687,905.88c-.13,2.8-.67,27.92-.67,43.29v22.32c3.22,0,19,0,29.78-.49l.13,22.68c-3.22,0-49.76-1.22-60.49-1.22.4-6.46.4-32.56.4-35.49V940.75c0-2-.27-32.56-.54-34.87Z"></path><path class="cls-3" d="M2794.41,993.68c-4.83,0-53.25-1.22-60.23-1.22.41-6.46.41-32.56.41-35.37V940.75c0-2-.27-31.34-.41-34.87,7.52,0,52.59-1.83,57.55-2.2l.54,20.12c-5,0-26,.61-28.44.61v16.1c2.68,0,18.11-.61,24-1.1l.4,19.51c-3.62,0-21.46-.48-24.41-.48V973c3.49,0,23.74.24,30.05-.25Z"></path><path class="cls-3" d="M2804.87,987.34c2.28-4.88,29.38-68.66,37.16-84.15h1.34c8.18,12.08,28,41.95,32.19,48.17,5.24-7.19,24.15-35.73,31.26-46.21h1.34c9.26,18,36.22,73.41,39.84,80.11l-27.1,11c-4.29-9.76-17-40.73-18.51-44-1.61,2.19-18.78,26.22-28.84,39h-1.34c-10.33-14.15-24.41-34.88-26.56-38.53-2.28,6.34-11.94,37.8-14.35,43.53Z"></path><path class="cls-3" d="M3023.79,993.68c-4.83,0-53.26-1.22-60.23-1.22.4-6.46.4-32.56.4-35.37V940.75c0-2-.27-31.34-.4-34.87,7.51,0,52.58-1.83,57.54-2.2l.54,20.12c-5,0-26,.61-28.44.61v16.1c2.68,0,18.11-.61,24-1.1l.4,19.51c-3.62,0-21.46-.48-24.41-.48V973c3.49,0,23.74.24,30.05-.25Z"></path><path class="cls-3" d="M3042.83,992.46c.8-8.66,4-71.1,5.37-87.31l1.34-.74c19,12.69,62.1,42.32,66.8,45.49,0-6.71-.4-39.39-.27-44.63l27.36.61c-.8,9.51-2,27.68-3.22,45.48s-2,35-2.41,42.93l-1.34.61c-16.1-9.51-64.52-44.39-66.53-45.85,0,5,.13,40.24.26,44.26Z"></path><path class="cls-3" d="M3181.79,992.46c.27-3.17.41-20.49.41-33.78V926.73c-6.44,0-25.49.61-29.65.73V906.12c6,.49,37.83,1,39.3,1h11.67c2.55,0,31.8-.49,38.37-1v21.34c-2.55-.12-27.37-.73-29.51-.73v33.9c0,12.56.13,29.39.4,31.83Z"></path><path class="cls-3" d="M3235,983.44c4-6.22,41.19-63.42,54.2-82.08h1.34c16.1,22.08,52.18,73.66,57.81,80.61l-26.56,14.27c-3.89-6-10.73-16.83-12.07-18.9l-40.38,2.07c-1.07,1.71-5.9,11.22-8.85,17Zm65.6-23.17c-3.76-7-8.85-15.61-11.27-20.61-3.22,5.85-7.91,14.87-11.4,21.7Z"></path><path class="cls-3" d="M3392.12,955.14c0,4.64.4,35.49.67,37.32h-29.92c.54-2.93.27-41.58.27-44.15v-10c0-3.66-.27-30.13-.67-32.44,18.38,0,37,.24,49.1,1.7,19.85,2.32,30.58,9.39,30.58,20.61,0,10-6.84,17.69-17.3,24.39,4,4.15,24.55,23,28,26.95l-24.55,16.83c-3.08-4.63-29.1-38.9-32.72-44.27,5.9-3.17,15.42-9.87,15.42-18,0-5.73-4.43-11.22-18.91-11.34Z"></path><path class="cls-3" d="M3486.41,992.46c.14-2.8.68-15.73.68-17.32v-5.36c0-15.73-7.52-28.42-17.44-34.39a55.71,55.71,0,0,0-15.16-6.34l10.33-25.12c9,2.68,18.38,6.58,25.22,12.8a47.09,47.09,0,0,1,13,20.37h1.07c3-8.18,8.32-14.64,14.76-20.25a61.72,61.72,0,0,1,25.22-12.92l8.45,25.12a51.43,51.43,0,0,0-20.26,9.14c-8.05,6-15,17.44-15,31.34v7.93c0,1.71.4,12.56.67,15Z"></path><path class="cls-3" d="M3806.06,955.39c0,26.58-13.14,40.85-34.61,51.22l-14.35-21.1c7.78-3.9,18.78-9.27,18.78-30.37v-19c0-2.07-.4-27.32-.67-30.24h31.52c-.27,2.19-.67,15.85-.67,30.48Z"></path><path class="cls-3" d="M3859.85,936c0,19.51,1.07,28.29,6.17,33.78,3.08,3.29,7.24,4.39,11.4,4.39a14.16,14.16,0,0,0,11.94-5.73c3.62-5,3.89-10.13,3.89-37.81V926c0-8.42-.54-16.83-.67-21.34h30.72c0,2.68.13,12,.13,21.58v5.61c0,23.42-1.48,37.81-11.67,48.9-8.18,9-21.19,13.66-36.08,13.66-11,0-27.37-1.71-37.56-15.24-6.58-8.9-8.86-17.93-8.86-47.56V925c0-5.61.14-15.73.14-18.53h31.25c-.53,3.17-.8,10.12-.8,21.22Z"></path><path class="cls-3" d="M3943.14,992.46c.81-8.66,4-71.1,5.37-87.31l1.34-.74c19.05,12.69,62.11,42.32,66.8,45.49,0-6.71-.4-39.39-.27-44.63l27.37.61c-.81,9.51-2,27.68-3.22,45.48s-2,35-2.41,42.93l-1.35.61c-16.09-9.51-64.52-44.39-66.53-45.85,0,5,.13,40.24.27,44.26Z"></path><path class="cls-3" d="M4097.94,955.63c0,12.2.4,34,.53,36.83h-31.12c.27-5.37.4-33.9.4-37.07V942.22c0-2.08-.4-33.42-.4-36.34h31.12c-.13,2.19-.53,22-.53,36.58Z"></path><path class="cls-3" d="M4117.12,952.71c0-23.54,18.78-48.78,58.35-48.78,31.92,0,51.91,16.09,51.91,42.92,0,18.42-13.55,47.68-58.48,47.56C4133.08,994.41,4117.12,972.22,4117.12,952.71Zm77.4-5c.13-15.74-7.92-24.88-20.8-24.88-15.29,0-23.87,13.17-23.87,28,0,16.34,9.52,24.63,20.52,24.63C4184.86,975.51,4194.38,965.88,4194.52,947.71Z"></path><path class="cls-3" d="M4275.8,955.14c0,4.64.4,35.49.67,37.32h-29.91c.54-2.93.27-41.58.27-44.15v-10c0-3.66-.27-30.13-.67-32.44,18.38,0,37,.24,49.09,1.7,19.86,2.32,30.59,9.39,30.59,20.61,0,10-6.84,17.69-17.31,24.39,4,4.15,24.55,23,28,26.95L4312,996.36c-3.08-4.63-29.11-38.9-32.73-44.27,5.9-3.17,15.43-9.87,15.43-18,0-5.73-4.43-11.22-18.92-11.34Z"></path><path class="cls-3" d="M4383.65,992.46c.26-5.37.4-33.9.4-37.07V942.22c0-2.08-.4-33.42-.67-36.34h31.52c-.27,2.19-.67,25.73-.67,27.92v4.88l34.88-2.32v-5.12c0-2.07-.27-22.68-.54-25.36h31.26c-.14,2.92-.54,37.07-.54,40v12.19c0,1.59.27,32.07.54,34.39h-31.26c.13-4.15.54-23.9.54-26.22V957l-34.88,2.32v4.39c0,5.49.4,26,.54,28.78Z"></path><path class="cls-3" d="M4538.44,955.63c0,12.2.4,34,.54,36.83h-31.12c.26-5.37.4-33.9.4-37.07V942.22c0-2.08-.4-33.42-.4-36.34H4539c-.14,2.19-.54,22-.54,36.58Z"></path><path class="cls-3" d="M4641.73,973.56c0,4.63.26,15.49.26,18.05a142.87,142.87,0,0,1-29.64,2.8c-39-.49-55.4-17.07-55.4-36.22,0-14.88,14.22-43.53,69.22-54.51l6.17,23.9c-18.11,2.2-43.73,12.56-43.73,29.27,0,12.07,14.08,16.83,24.28,16.59l.13-9.76c0-3.54-.27-6.83-.27-10.24h29.11c-.13,4.75-.13,7.56-.13,11.22Z"></path><path class="cls-3" d="M4665.6,992.46c.27-5.37.4-33.9.4-37.07V942.22c0-2.08-.4-33.42-.67-36.34h31.52c-.26,2.19-.67,25.73-.67,27.92v4.88l34.88-2.32v-5.12c0-2.07-.27-22.68-.54-25.36h31.26c-.14,2.92-.54,37.07-.54,40v12.19c0,1.59.27,32.07.54,34.39h-31.26c.14-4.15.54-23.9.54-26.22V957l-34.88,2.32v4.39c0,5.49.41,26,.54,28.78Z"></path><rect class="cls-3" x="2456.31" y="862.25" width="18.07" height="196.15"></rect><rect class="cls-3" x="3657.54" y="862.25" width="18.07" height="196.15"></rect></g></g></svg>